Raleway-SemiBold-TTF.ufo
<glyph name="dollar" format="1">
  <advance width="628"/>
  <unicode hex="0024"/>
  <outline>
    <contour>
      <point x="509" y="543" type="line"/>
      <point x="500" y="553"/>
      <point x="465" y="576"/>
      <point x="419" y="597"/>
      <point x="364" y="612"/>
      <point x="335" y="614" type="qcurve"/>
      <point x="335" y="407" type="line"/>
      <point x="354" y="403" type="line"/>
      <point x="408" y="390"/>
      <point x="495" y="358"/>
      <point x="555" y="312"/>
      <point x="588" y="245"/>
      <point x="588" y="197" type="qcurve"/>
      <point x="588" y="144"/>
      <point x="550" y="69"/>
      <point x="483" y="19"/>
      <point x="394" y="-6"/>
      <point x="343" y="-7" type="qcurve"/>
      <point x="343" y="-112" type="line"/>
      <point x="291" y="-112" type="line"/>
      <point x="291" y="-5" type="line"/>
      <point x="219" y="0"/>
      <point x="89" y="47"/>
      <point x="35" y="89" type="qcurve"/>
      <point x="86" y="185" type="line"/>
      <point x="97" y="173"/>
      <point x="139" y="145"/>
      <point x="195" y="119"/>
      <point x="262" y="99"/>
      <point x="298" y="95" type="qcurve"/>
      <point x="298" y="302" type="line"/>
      <point x="292" y="304"/>
      <point x="279" y="307"/>
      <point x="273" y="309" type="qcurve"/>
      <point x="220" y="323"/>
      <point x="141" y="354"/>
      <point x="89" y="398"/>
      <point x="62" y="457"/>
      <point x="62" y="499" type="qcurve"/>
      <point x="62" y="548"/>
      <point x="96" y="624"/>
      <point x="158" y="679"/>
      <point x="241" y="710"/>
      <point x="291" y="714" type="qcurve"/>
      <point x="291" y="815" type="line"/>
      <point x="343" y="815" type="line"/>
      <point x="343" y="714" type="line"/>
      <point x="408" y="710"/>
      <point x="518" y="666"/>
      <point x="560" y="635" type="qcurve"/>
    </contour>
    <contour>
      <point x="468" y="185" type="qcurve"/>
      <point x="468" y="229"/>
      <point x="398" y="274"/>
      <point x="335" y="292" type="qcurve"/>
      <point x="335" y="94" type="line"/>
      <point x="399" y="95"/>
      <point x="468" y="141"/>
    </contour>
    <contour>
      <point x="179" y="517" type="qcurve"/>
      <point x="179" y="475"/>
      <point x="238" y="433"/>
      <point x="298" y="417" type="qcurve"/>
      <point x="298" y="614" type="line"/>
      <point x="237" y="611"/>
      <point x="179" y="560"/>
    </contour>
  </outline>
</glyph>
<glyph name="parenleft" format="1">
  <advance width="296"/>
  <unicode hex="0028"/>
  <outline>
    <contour>
      <point x="38" y="346" type="qcurve"/>
      <point x="38" y="397"/>
      <point x="61" y="497"/>
      <point x="100" y="598"/>
      <point x="153" y="699"/>
      <point x="183" y="750" type="qcurve"/>
      <point x="268" y="714" type="line"/>
      <point x="250" y="688"/>
      <point x="206" y="603"/>
      <point x="167" y="502"/>
      <point x="141" y="393"/>
      <point x="141" y="343" type="qcurve"/>
      <point x="141" y="264"/>
      <point x="208" y="86"/>
      <point x="265" y="-6" type="qcurve"/>
      <point x="185" y="-47" type="line"/>
      <point x="122" y="47"/>
      <point x="38" y="246"/>
    </contour>
  </outline>
</glyph>
<glyph name="parenright" format="1">
  <advance width="296"/>
  <unicode hex="0029"/>
  <outline>
    <contour>
      <point x="257" y="346" type="qcurve"/>
      <point x="257" y="246"/>
      <point x="174" y="47"/>
      <point x="111" y="-47" type="qcurve"/>
      <point x="30" y="-6" type="line"/>
      <point x="87" y="86"/>
      <point x="155" y="264"/>
      <point x="155" y="343" type="qcurve"/>
      <point x="155" y="393"/>
      <point x="128" y="502"/>
      <point x="89" y="603"/>
      <point x="45" y="688"/>
      <point x="28" y="714" type="qcurve"/>
      <point x="112" y="750" type="line"/>
      <point x="142" y="699"/>
      <point x="195" y="598"/>
      <point x="234" y="497"/>
      <point x="257" y="397"/>
    </contour>
  </outline>
</glyph>
<glyph name="period" format="1">
  <advance width="213"/>
  <unicode hex="002E"/>
  <outline>
    <contour>
      <point x="61" y="0" type="line"/>
      <point x="61" y="128" type="line"/>
      <point x="152" y="128" type="line"/>
      <point x="152" y="0" type="line"/>
    </contour>
  </outline>
</glyph>
<glyph name="at" format="1">
  <advance width="843"/>
  <unicode hex="0040"/>
  <outline>
    <contour>
      <point x="420" y="603" type="qcurve"/>
      <point x="494" y="603"/>
      <point x="628" y="551"/>
      <point x="730" y="454"/>
      <point x="791" y="312"/>
      <point x="791" y="222" type="qcurve"/>
      <point x="791" y="208"/>
      <point x="788" y="161"/>
      <point x="778" y="109"/>
      <point x="758" y="55"/>
      <point x="724" y="11"/>
      <point x="674" y="-16"/>
      <point x="639" y="-16" type="qcurve"/>
      <point x="613" y="-16"/>
      <point x="579" y="-1"/>
      <point x="559" y="23"/>
      <point x="550" y="54"/>
      <point x="548" y="70" type="qcurve"/>
      <point x="519" y="39"/>
      <point x="430" y="0"/>
      <point x="378" y="0" type="qcurve"/>
      <point x="304" y="0"/>
      <point x="226" y="78"/>
      <point x="226" y="138" type="qcurve"/>
      <point x="226" y="178"/>
      <point x="259" y="233"/>
      <point x="312" y="266"/>
      <point x="379" y="280"/>
      <point x="412" y="280" type="qcurve"/>
      <point x="454" y="280"/>
      <point x="516" y="264"/>
      <point x="531" y="258" type="qcurve"/>
      <point x="531" y="288"/>
      <point x="521" y="338"/>
      <point x="494" y="374"/>
      <point x="448" y="394"/>
      <point x="413" y="394" type="qcurve"/>
      <point x="372" y="394"/>
      <point x="303" y="370"/>
      <point x="277" y="349" type="qcurve"/>
      <point x="255" y="409" type="line"/>
      <point x="292" y="433"/>
      <point x="376" y="459"/>
      <point x="423" y="459" type="qcurve"/>
      <point x="484" y="459"/>
      <point x="555" y="420"/>
      <point x="590" y="360"/>
      <point x="599" y="286"/>
      <point x="599" y="252" type="qcurve"/>
      <point x="599" y="144" type="line"/>
      <point x="599" y="122"/>
      <point x="602" y="83"/>
      <point x="612" y="53"/>
      <point x="632" y="36"/>
      <point x="649" y="36" type="qcurve"/>
      <point x="677" y="36"/>
      <point x="714" y="77"/>
      <point x="734" y="136"/>
      <point x="742" y="201"/>
      <point x="742" y="224" type="qcurve"/>
      <point x="742" y="295"/>
      <point x="694" y="417"/>
      <point x="608" y="506"/>
      <point x="488" y="557"/>
      <point x="417" y="557" type="qcurve"/>
      <point x="347" y="557"/>
      <point x="229" y="508"/>
      <point x="142" y="421"/>
      <point x="93" y="301"/>
      <point x="93" y="230" type="qcurve"/>
      <point x="93" y="162"/>
      <point x="139" y="42"/>
      <point x="222" y="-48"/>
      <point x="338" y="-100"/>
      <point x="408" y="-100" type="qcurve"/>
      <point x="455" y="-100"/>
      <point x="526" y="-79"/>
      <point x="563" y="-62" type="qcurve"/>
      <point x="579" y="-106" type="line"/>
      <point x="537" y="-126"/>
      <point x="451" y="-146"/>
      <point x="407" y="-146" type="qcurve"/>
      <point x="332" y="-146"/>
      <point x="200" y="-91"/>
      <point x="101" y="9"/>
      <point x="44" y="147"/>
      <point x="44" y="230" type="qcurve"/>
      <point x="44" y="317"/>
      <point x="106" y="456"/>
      <point x="210" y="552"/>
      <point x="346" y="603"/>
    </contour>
    <contour>
      <point x="474" y="81" type="qcurve"/>
      <point x="507" y="97"/>
      <point x="530" y="142"/>
      <point x="530" y="166" type="qcurve"/>
      <point x="530" y="204" type="line"/>
      <point x="516" y="207"/>
      <point x="454" y="225"/>
      <point x="412" y="225" type="qcurve"/>
      <point x="363" y="225"/>
      <point x="294" y="187"/>
      <point x="294" y="141" type="qcurve"/>
      <point x="294" y="106"/>
      <point x="342" y="60"/>
      <point x="384" y="60" type="qcurve"/>
      <point x="406" y="60"/>
      <point x="454" y="72"/>
    </contour>
  </outline>
</glyph>
<glyph name="F" format="1">
  <advance width="579"/>
  <unicode hex="0046"/>
  <outline>
    <contour>
      <point x="80" y="0" type="line"/>
      <point x="80" y="710" type="line"/>
      <point x="553" y="710" type="line"/>
      <point x="553" y="611" type="line"/>
      <point x="192" y="611" type="line"/>
      <point x="192" y="399" type="line"/>
      <point x="494" y="399" type="line"/>
      <point x="494" y="306" type="line"/>
      <point x="192" y="306" type="line"/>
      <point x="192" y="0" type="line"/>
    </contour>
  </outline>
</glyph>
<glyph name="G" format="1">
  <advance width="719"/>
  <unicode hex="0047"/>
  <outline>
    <contour>
      <point x="373" y="708" type="move" name="top"/>
    </contour>
    <contour>
      <point x="373" y="0" type="move" name="bottom"/>
    </contour>
    <contour>
      <point x="577" y="88" type="line"/>
      <point x="487" y="-5"/>
      <point x="370" y="-5" type="qcurve"/>
      <point x="299" y="-5"/>
      <point x="177" y="54"/>
      <point x="87" y="154"/>
      <point x="36" y="286"/>
      <point x="36" y="358" type="qcurve"/>
      <point x="36" y="430"/>
      <point x="87" y="560"/>
      <point x="177" y="658"/>
      <point x="301" y="715"/>
      <point x="374" y="715" type="qcurve"/>
      <point x="476" y="715"/>
      <point x="614" y="630"/>
      <point x="649" y="560" type="qcurve"/>
      <point x="563" y="498" type="line"/>
      <point x="534" y="556"/>
      <point x="432" y="614"/>
      <point x="371" y="614" type="qcurve"/>
      <point x="321" y="614"/>
      <point x="239" y="571"/>
      <point x="181" y="500"/>
      <point x="150" y="406"/>
      <point x="150" y="355" type="qcurve"/>
      <point x="150" y="301"/>
      <point x="185" y="207"/>
      <point x="246" y="137"/>
      <point x="330" y="96"/>
      <point x="379" y="96" type="qcurve"/>
      <point x="433" y="96"/>
      <point x="532" y="146"/>
      <point x="577" y="200" type="qcurve"/>
      <point x="577" y="276" type="line"/>
      <point x="428" y="276" type="line"/>
      <point x="428" y="359" type="line"/>
      <point x="671" y="359" type="line"/>
      <point x="671" y="0" type="line"/>
      <point x="577" y="0" type="line"/>
    </contour>
  </outline>
</glyph>
<glyph name="H" format="1">
  <advance width="743"/>
  <unicode hex="0048"/>
  <outline>
    <contour>
      <point x="374" y="708" type="move" name="top"/>
    </contour>
    <contour>
      <point x="663" y="710" type="line"/>
      <point x="663" y="0" type="line"/>
      <point x="550" y="0" type="line"/>
      <point x="550" y="313" type="line"/>
      <point x="192" y="313" type="line"/>
      <point x="192" y="0" type="line"/>
      <point x="80" y="0" type="line"/>
      <point x="80" y="710" type="line"/>
      <point x="192" y="710" type="line"/>
      <point x="192" y="413" type="line"/>
      <point x="550" y="413" type="line"/>
      <point x="550" y="710" type="line"/>
    </contour>
  </outline>
</glyph>
<glyph name="o" format="1">
  <advance width="602"/>
  <unicode hex="006F"/>
  <outline>
    <contour>
      <point x="301" y="523" type="move" name="top"/>
    </contour>
    <contour>
      <point x="301" y="0" type="move" name="bottom"/>
    </contour>
    <contour>
      <point x="301" y="-10" type="qcurve"/>
      <point x="239" y="-10"/>
      <point x="140" y="34"/>
      <point x="70" y="108"/>
      <point x="32" y="207"/>
      <point x="32" y="261" type="qcurve"/>
      <point x="32" y="315"/>
      <point x="70" y="414"/>
      <point x="141" y="488"/>
      <point x="240" y="532"/>
      <point x="301" y="532" type="qcurve"/>
      <point x="362" y="532"/>
      <point x="461" y="488"/>
      <point x="532" y="414"/>
      <point x="570" y="315"/>
      <point x="570" y="261" type="qcurve"/>
      <point x="570" y="207"/>
      <point x="532" y="108"/>
      <point x="461" y="34"/>
      <point x="362" y="-10"/>
    </contour>
    <contour>
      <point x="145" y="260" type="qcurve"/>
      <point x="145" y="222"/>
      <point x="169" y="158"/>
      <point x="211" y="111"/>
      <point x="268" y="84"/>
      <point x="301" y="84" type="qcurve"/>
      <point x="334" y="84"/>
      <point x="391" y="111"/>
      <point x="433" y="159"/>
      <point x="457" y="223"/>
      <point x="457" y="261" type="qcurve"/>
      <point x="457" y="298"/>
      <point x="433" y="363"/>
      <point x="391" y="411"/>
      <point x="334" y="438"/>
      <point x="301" y="438" type="qcurve"/>
      <point x="269" y="438"/>
      <point x="212" y="410"/>
      <point x="170" y="362"/>
      <point x="145" y="297"/>
    </contour>
  </outline>
</glyph>
<glyph name="currency" format="1">
  <advance width="545"/>
  <unicode hex="00A4"/>
  <outline>
    <contour>
      <point x="165" y="491" type="line"/>
      <point x="187" y="506"/>
      <point x="241" y="523"/>
      <point x="273" y="523" type="qcurve"/>
      <point x="304" y="523"/>
      <point x="357" y="506"/>
      <point x="380" y="491" type="qcurve"/>
      <point x="450" y="562" type="line"/>
      <point x="498" y="515" type="line"/>
      <point x="427" y="445" type="line"/>
      <point x="460" y="398"/>
      <point x="460" y="337" type="qcurve"/>
      <point x="460" y="277"/>
      <point x="426" y="229" type="qcurve"/>
      <point x="498" y="159" type="line"/>
      <point x="455" y="117" type="line"/>
      <point x="382" y="185" type="line"/>
      <point x="360" y="170"/>
      <point x="305" y="152"/>
      <point x="273" y="152" type="qcurve"/>
      <point x="240" y="152"/>
      <point x="185" y="170"/>
      <point x="162" y="185" type="qcurve"/>
      <point x="89" y="117" type="line"/>
      <point x="47" y="159" type="line"/>
      <point x="118" y="230" type="line"/>
      <point x="102" y="253"/>
      <point x="85" y="308"/>
      <point x="85" y="337" type="qcurve"/>
      <point x="85" y="398"/>
      <point x="117" y="444" type="qcurve"/>
      <point x="47" y="515" type="line"/>
      <point x="94" y="562" type="line"/>
    </contour>
    <contour>
      <point x="171" y="336" type="qcurve"/>
      <point x="171" y="312"/>
      <point x="187" y="271"/>
      <point x="214" y="241"/>
      <point x="252" y="224"/>
      <point x="273" y="224" type="qcurve"/>
      <point x="316" y="224"/>
      <point x="375" y="289"/>
      <point x="375" y="338" type="qcurve"/>
      <point x="375" y="387"/>
      <point x="316" y="450"/>
      <point x="273" y="450" type="qcurve"/>
      <point x="230" y="450"/>
      <point x="171" y="386"/>
    </contour>
  </outline>
</glyph>
<glyph name="copyright" format="1">
  <advance width="838"/>
  <unicode hex="00A9"/>
  <outline>
    <contour>
      <point x="417" y="-7" type="qcurve"/>
      <point x="337" y="-7"/>
      <point x="200" y="48"/>
      <point x="101" y="145"/>
      <point x="45" y="277"/>
      <point x="45" y="355" type="qcurve"/>
      <point x="45" y="432"/>
      <point x="101" y="564"/>
      <point x="200" y="660"/>
      <point x="337" y="715"/>
      <point x="417" y="715" type="qcurve"/>
      <point x="498" y="715"/>
      <point x="636" y="660"/>
      <point x="737" y="564"/>
      <point x="794" y="432"/>
      <point x="794" y="355" type="qcurve"/>
      <point x="794" y="277"/>
      <point x="737" y="145"/>
      <point x="636" y="48"/>
      <point x="498" y="-7"/>
    </contour>
    <contour>
      <point x="417" y="37" type="qcurve"/>
      <point x="486" y="37"/>
      <point x="607" y="83"/>
      <point x="695" y="167"/>
      <point x="746" y="283"/>
      <point x="746" y="353" type="qcurve"/>
      <point x="746" y="421"/>
      <point x="696" y="537"/>
      <point x="608" y="623"/>
      <point x="488" y="671"/>
      <point x="417" y="671" type="qcurve"/>
      <point x="347" y="671"/>
      <point x="228" y="623"/>
      <point x="141" y="537"/>
      <point x="92" y="421"/>
      <point x="92" y="354" type="qcurve"/>
      <point x="92" y="287"/>
      <point x="141" y="171"/>
      <point x="228" y="86"/>
      <point x="347" y="37"/>
    </contour>
    <contour>
      <point x="425" y="119" type="qcurve"/>
      <point x="373" y="119"/>
      <point x="283" y="154"/>
      <point x="217" y="217"/>
      <point x="180" y="304"/>
      <point x="180" y="355" type="qcurve"/>
      <point x="180" y="399"/>
      <point x="210" y="484"/>
      <point x="270" y="551"/>
      <point x="361" y="592"/>
      <point x="421" y="592" type="qcurve"/>
      <point x="496" y="592"/>
      <point x="606" y="527"/>
      <point x="632" y="470" type="qcurve"/>
      <point x="526" y="436" type="line"/>
      <point x="517" y="454"/>
      <point x="492" y="478"/>
      <point x="464" y="491"/>
      <point x="434" y="497"/>
      <point x="421" y="497" type="qcurve"/>
      <point x="390" y="497"/>
      <point x="342" y="473"/>
      <point x="309" y="434"/>
      <point x="292" y="382"/>
      <point x="292" y="355" type="qcurve"/>
      <point x="292" y="321"/>
      <point x="315" y="268"/>
      <point x="353" y="232"/>
      <point x="400" y="213"/>
      <point x="423" y="213" type="qcurve"/>
      <point x="454" y="213"/>
      <point x="516" y="246"/>
      <point x="530" y="276" type="qcurve"/>
      <point x="637" y="244" type="line"/>
      <point x="627" y="221"/>
      <point x="589" y="176"/>
      <point x="535" y="141"/>
      <point x="466" y="119"/>
    </contour>
  </outline>
</glyph>
<glyph name="ordfeminine" format="1">
  <advance width="441"/>
  <unicode hex="00AA"/>
  <outline>
    <contour>
      <point x="252" y="519" type="move" name="top"/>
    </contour>
    <contour>
      <point x="445" y="11" type="move" name="bottom"/>
    </contour>
    <contour>
      <point x="163" y="342" type="qcurve"/>
      <point x="137" y="342"/>
      <point x="94" y="359"/>
      <point x="61" y="389"/>
      <point x="43" y="430"/>
      <point x="43" y="454" type="qcurve"/>
      <point x="43" y="479"/>
      <point x="65" y="522"/>
      <point x="105" y="552"/>
      <point x="159" y="569"/>
      <point x="192" y="569" type="qcurve"/>
      <point x="244" y="569"/>
      <point x="282" y="553" type="qcurve"/>
      <point x="282" y="575" type="line"/>
      <point x="282" y="612"/>
      <point x="241" y="653"/>
      <point x="200" y="653" type="qcurve"/>
      <point x="172" y="653"/>
      <point x="118" y="633"/>
      <point x="88" y="613" type="qcurve"/>
      <point x="62" y="666" type="line"/>
      <point x="132" y="712"/>
      <point x="208" y="712" type="qcurve"/>
      <point x="283" y="712"/>
      <point x="366" y="637"/>
      <point x="366" y="565" type="qcurve"/>
      <point x="366" y="447" type="line"/>
      <point x="366" y="422"/>
      <point x="389" y="421" type="qcurve"/>
      <point x="389" y="348" type="line"/>
      <point x="369" y="344"/>
      <point x="352" y="344" type="qcurve"/>
      <point x="327" y="344"/>
      <point x="300" y="366"/>
      <point x="297" y="386" type="qcurve"/>
      <point x="296" y="407" type="line"/>
      <point x="271" y="375"/>
      <point x="202" y="342"/>
    </contour>
    <contour>
      <point x="187" y="404" type="qcurve"/>
      <point x="212" y="404"/>
      <point x="256" y="422"/>
      <point x="269" y="437" type="qcurve"/>
      <point x="282" y="447"/>
      <point x="282" y="463" type="qcurve"/>
      <point x="282" y="506" type="line"/>
      <point x="265" y="514"/>
      <point x="226" y="520"/>
      <point x="207" y="520" type="qcurve"/>
      <point x="169" y="520"/>
      <point x="122" y="487"/>
      <point x="122" y="461" type="qcurve"/>
      <point x="122" y="437"/>
      <point x="159" y="404"/>
    </contour>
  </outline>
</glyph>
<glyph name="degree" format="1">
  <advance width="278"/>
  <unicode hex="00B0"/>
  <outline>
    <contour>
      <point x="44" y="631" type="qcurve"/>
      <point x="44" y="671"/>
      <point x="98" y="724"/>
      <point x="139" y="724" type="qcurve"/>
      <point x="181" y="724"/>
      <point x="234" y="671"/>
      <point x="234" y="631" type="qcurve"/>
      <point x="234" y="587"/>
      <point x="181" y="533"/>
      <point x="139" y="533" type="qcurve"/>
      <point x="98" y="533"/>
      <point x="44" y="589"/>
    </contour>
    <contour>
      <point x="111" y="657" type="qcurve"/>
      <point x="99" y="643"/>
      <point x="99" y="629" type="qcurve"/>
      <point x="99" y="613"/>
      <point x="111" y="601" type="qcurve"/>
      <point x="121" y="589"/>
      <point x="139" y="589" type="qcurve"/>
      <point x="147" y="589"/>
      <point x="162" y="595"/>
      <point x="167" y="601" type="qcurve"/>
      <point x="179" y="613"/>
      <point x="179" y="629" type="qcurve"/>
      <point x="179" y="643"/>
      <point x="167" y="657" type="qcurve"/>
      <point x="162" y="663"/>
      <point x="147" y="668"/>
      <point x="139" y="668" type="qcurve"/>
      <point x="122" y="668"/>
    </contour>
  </outline>
</glyph>
<glyph name="mu" format="1">
  <advance width="645"/>
  <unicode hex="00B5"/>
  <outline>
    <contour>
      <point x="77" y="523" type="line"/>
      <point x="187" y="523" type="line"/>
      <point x="187" y="225" type="line"/>
      <point x="187" y="84"/>
      <point x="289" y="84" type="qcurve"/>
      <point x="334" y="84"/>
      <point x="419" y="142"/>
      <point x="442" y="197" type="qcurve"/>
      <point x="442" y="523" type="line"/>
      <point x="552" y="523" type="line"/>
      <point x="552" y="130" type="line"/>
      <point x="552" y="95"/>
      <point x="584" y="94" type="qcurve"/>
      <point x="584" y="0" type="line"/>
      <point x="566" y="-3"/>
      <point x="543" y="-5"/>
      <point x="533" y="-5" type="qcurve"/>
      <point x="501" y="-5"/>
      <point x="462" y="30"/>
      <point x="460" y="58" type="qcurve"/>
      <point x="458" y="106" type="line"/>
      <point x="448" y="85"/>
      <point x="411" y="43"/>
      <point x="365" y="10"/>
      <point x="311" y="-10"/>
      <point x="283" y="-10" type="qcurve"/>
      <point x="240" y="-10"/>
      <point x="190" y="33"/>
      <point x="181" y="58" type="qcurve"/>
      <point x="181" y="-212" type="line"/>
      <point x="77" y="-212" type="line"/>
    </contour>
  </outline>
</glyph>
<glyph name="cedilla" format="1">
  <advance width="310"/>
  <unicode hex="00B8"/>
  <outline>
    <contour>
      <point x="124" y="0" type="move" name="_bottom"/>
    </contour>
    <contour>
      <point x="45" y="-126" type="line"/>
      <point x="57" y="-133"/>
      <point x="107" y="-146"/>
      <point x="133" y="-146" type="qcurve"/>
      <point x="159" y="-146"/>
      <point x="190" y="-130"/>
      <point x="190" y="-112" type="qcurve"/>
      <point x="190" y="-92"/>
      <point x="161" y="-78"/>
      <point x="138" y="-78" type="qcurve"/>
      <point x="117" y="-78"/>
      <point x="71" y="-86"/>
      <point x="58" y="-90" type="qcurve"/>
      <point x="118" y="24" type="line"/>
      <point x="163" y="9" type="line"/>
      <point x="128" y="-45" type="line"/>
      <point x="136" y="-43"/>
      <point x="154" y="-41"/>
      <point x="162" y="-41" type="qcurve"/>
      <point x="197" y="-41"/>
      <point x="244" y="-73"/>
      <point x="244" y="-108" type="qcurve"/>
      <point x="244" y="-144"/>
      <point x="185" y="-189"/>
      <point x="125" y="-189" type="qcurve"/>
      <point x="93" y="-189"/>
      <point x="42" y="-177"/>
      <point x="22" y="-169" type="qcurve"/>
    </contour>
  </outline>
</glyph>
<glyph name="onesuperior" format="1">
  <advance width="289"/>
  <unicode hex="00B9"/>
  <outline>
    <contour>
      <point x="268" y="461" type="line"/>
      <point x="268" y="395" type="line"/>
      <point x="49" y="395" type="line"/>
      <point x="49" y="461" type="line"/>
      <point x="128" y="461" type="line"/>
      <point x="128" y="740" type="line"/>
      <point x="123" y="733"/>
      <point x="101" y="716"/>
      <point x="74" y="701"/>
      <point x="45" y="690"/>
      <point x="33" y="690" type="qcurve"/>
      <point x="33" y="757" type="line"/>
      <point x="49" y="757"/>
      <point x="82" y="774"/>
      <point x="110" y="794"/>
      <point x="128" y="812"/>
      <point x="128" y="813" type="qcurve"/>
      <point x="195" y="813" type="line"/>
      <point x="195" y="461" type="line"/>
    </contour>
  </outline>
</glyph>
<glyph name="Agrave" format="1">
  <advance width="675"/>
  <unicode hex="00C0"/>
  <outline>
    <contour>
      <point x="289" y="710" type="line"/>
      <point x="387" y="710" type="line"/>
      <point x="667" y="0" type="line"/>
      <point x="549" y="0" type="line"/>
      <point x="474" y="193" type="line"/>
      <point x="200" y="193" type="line"/>
      <point x="126" y="0" type="line"/>
      <point x="7" y="0" type="line"/>
    </contour>
    <contour>
      <point x="452" y="276" type="line"/>
      <point x="338" y="581" type="line"/>
      <point x="220" y="276" type="line"/>
    </contour>
    <contour>
      <point x="222" y="917" type="line"/>
      <point x="327" y="917" type="line"/>
      <point x="384" y="807" type="line"/>
      <point x="314" y="785" type="line"/>
    </contour>
  </outline>
</glyph>
<glyph name="Atilde" format="1">
  <advance width="675"/>
  <unicode hex="00C3"/>
  <outline>
    <contour>
      <point x="289" y="710" type="line"/>
      <point x="387" y="710" type="line"/>
      <point x="667" y="0" type="line"/>
      <point x="549" y="0" type="line"/>
      <point x="474" y="193" type="line"/>
      <point x="200" y="193" type="line"/>
      <point x="126" y="0" type="line"/>
      <point x="7" y="0" type="line"/>
    </contour>
    <contour>
      <point x="452" y="276" type="line"/>
      <point x="338" y="581" type="line"/>
      <point x="220" y="276" type="line"/>
    </contour>
    <contour>
      <point x="401" y="801" type="qcurve"/>
      <point x="378" y="801"/>
      <point x="344" y="814"/>
      <point x="315" y="831"/>
      <point x="287" y="844"/>
      <point x="271" y="844" type="qcurve"/>
      <point x="254" y="844"/>
      <point x="235" y="830"/>
      <point x="225" y="813"/>
      <point x="222" y="797"/>
      <point x="222" y="796" type="qcurve"/>
      <point x="160" y="796" type="line"/>
      <point x="160" y="804"/>
      <point x="170" y="842"/>
      <point x="195" y="881"/>
      <point x="236" y="911"/>
      <point x="267" y="911" type="qcurve"/>
      <point x="289" y="911"/>
      <point x="322" y="897"/>
      <point x="351" y="881"/>
      <point x="380" y="867"/>
      <point x="398" y="867" type="qcurve"/>
      <point x="416" y="867"/>
      <point x="438" y="881"/>
      <point x="449" y="899"/>
      <point x="452" y="914"/>
      <point x="452" y="916" type="qcurve"/>
      <point x="515" y="916" type="line"/>
      <point x="515" y="910"/>
      <point x="504" y="872"/>
      <point x="478" y="832"/>
      <point x="434" y="801"/>
    </contour>
  </outline>
</glyph>
<glyph name="Thorn" format="1">
  <advance width="604"/>
  <unicode hex="00DE"/>
  <outline>
    <contour>
      <point x="361" y="577" type="line"/>
      <point x="409" y="577"/>
      <point x="490" y="537"/>
      <point x="548" y="472"/>
      <point x="581" y="389"/>
      <point x="581" y="346" type="qcurve"/>
      <point x="581" y="301"/>
      <point x="550" y="217"/>
      <point x="494" y="153"/>
      <point x="414" y="114"/>
      <point x="366" y="114" type="qcurve"/>
      <point x="192" y="114" type="line"/>
      <point x="192" y="0" type="line"/>
      <point x="80" y="0" type="line"/>
      <point x="80" y="710" type="line"/>
      <point x="192" y="710" type="line"/>
      <point x="192" y="577" type="line"/>
    </contour>
    <contour>
      <point x="361" y="214" type="line"/>
      <point x="385" y="214"/>
      <point x="424" y="236"/>
      <point x="453" y="272"/>
      <point x="468" y="320"/>
      <point x="468" y="346" type="qcurve"/>
      <point x="468" y="374"/>
      <point x="450" y="422"/>
      <point x="419" y="458"/>
      <point x="378" y="478"/>
      <point x="355" y="478" type="qcurve"/>
      <point x="192" y="478" type="line"/>
      <point x="192" y="214" type="line"/>
    </contour>
  </outline>
</glyph>
<glyph name="iacute" format="1">
  <advance width="242"/>
  <unicode hex="00ED"/>
  <outline>
    <contour>
      <point x="146" y="598" type="line"/>
      <point x="74" y="620" type="line"/>
      <point x="131" y="730" type="line"/>
      <point x="236" y="730" type="line"/>
    </contour>
    <contour>
      <point x="66" y="0" type="line"/>
      <point x="66" y="523" type="line"/>
      <point x="176" y="523" type="line"/>
      <point x="176" y="0" type="line"/>
    </contour>
  </outline>
</glyph>
<glyph name="uacute" format="1">
  <advance width="609"/>
  <unicode hex="00FA"/>
  <outline>
    <contour>
      <point x="322" y="598" type="line"/>
      <point x="250" y="620" type="line"/>
      <point x="307" y="730" type="line"/>
      <point x="412" y="730" type="line"/>
    </contour>
    <contour>
      <point x="227" y="-10" type="qcurve"/>
      <point x="145" y="-10"/>
      <point x="61" y="97"/>
      <point x="61" y="203" type="qcurve"/>
      <point x="61" y="523" type="line"/>
      <point x="171" y="523" type="line"/>
      <point x="171" y="225" type="line"/>
      <point x="171" y="84"/>
      <point x="271" y="84" type="qcurve"/>
      <point x="318" y="84"/>
      <point x="402" y="142"/>
      <point x="425" y="197" type="qcurve"/>
      <point x="425" y="523" type="line"/>
      <point x="535" y="523" type="line"/>
      <point x="535" y="130" type="line"/>
      <point x="535" y="111"/>
      <point x="548" y="95"/>
      <point x="565" y="94" type="qcurve"/>
      <point x="565" y="0" type="line"/>
      <point x="548" y="-3"/>
      <point x="526" y="-5"/>
      <point x="516" y="-5" type="qcurve"/>
      <point x="486" y="-5"/>
      <point x="444" y="28"/>
      <point x="443" y="54" type="qcurve"/>
      <point x="441" y="106" type="line"/>
      <point x="406" y="49"/>
      <point x="294" y="-10"/>
    </contour>
  </outline>
</glyph>
<glyph name="abreve" format="1">
  <advance width="564"/>
  <unicode hex="0103"/>
  <outline>
    <contour>
      <point x="205" y="-10" type="qcurve"/>
      <point x="167" y="-10"/>
      <point x="102" y="15"/>
      <point x="55" y="59"/>
      <point x="28" y="119"/>
      <point x="28" y="154" type="qcurve"/>
      <point x="28" y="191"/>
      <point x="60" y="251"/>
      <point x="119" y="295"/>
      <point x="200" y="319"/>
      <point x="249" y="319" type="qcurve"/>
      <point x="286" y="319"/>
      <point x="358" y="306"/>
      <point x="387" y="295" type="qcurve"/>
      <point x="387" y="331" type="line"/>
      <point x="387" y="389"/>
      <point x="321" y="454"/>
      <point x="259" y="454" type="qcurve"/>
      <point x="217" y="454"/>
      <point x="136" y="423"/>
      <point x="93" y="394" type="qcurve"/>
      <point x="59" y="464" type="line"/>
      <point x="160" y="532"/>
      <point x="269" y="532" type="qcurve"/>
      <point x="377" y="532"/>
      <point x="497" y="422"/>
      <point x="497" y="319" type="qcurve"/>
      <point x="497" y="130" type="line"/>
      <point x="497" y="95"/>
      <point x="526" y="94" type="qcurve"/>
      <point x="526" y="0" type="line"/>
      <point x="510" y="-3"/>
      <point x="487" y="-5"/>
      <point x="476" y="-5" type="qcurve"/>
      <point x="444" y="-5"/>
      <point x="409" y="27"/>
      <point x="405" y="52" type="qcurve"/>
      <point x="402" y="85" type="line"/>
      <point x="367" y="39"/>
      <point x="264" y="-10"/>
    </contour>
    <contour>
      <point x="235" y="71" type="qcurve"/>
      <point x="275" y="71"/>
      <point x="346" y="100"/>
      <point x="366" y="126" type="qcurve"/>
      <point x="387" y="144"/>
      <point x="387" y="164" type="qcurve"/>
      <point x="387" y="233" type="line"/>
      <point x="359" y="244"/>
      <point x="296" y="256"/>
      <point x="266" y="256" type="qcurve"/>
      <point x="207" y="256"/>
      <point x="132" y="205"/>
      <point x="132" y="163" type="qcurve"/>
      <point x="132" y="124"/>
      <point x="190" y="71"/>
    </contour>
    <contour>
      <point x="269" y="659" type="qcurve"/>
      <point x="291" y="659"/>
      <point x="324" y="699"/>
      <point x="327" y="730" type="qcurve"/>
      <point x="388" y="730" type="line"/>
      <point x="388" y="704"/>
      <point x="370" y="659"/>
      <point x="338" y="626"/>
      <point x="294" y="608"/>
      <point x="269" y="608" type="qcurve"/>
      <point x="243" y="608"/>
      <point x="200" y="626"/>
      <point x="168" y="659"/>
      <point x="150" y="704"/>
      <point x="150" y="730" type="qcurve"/>
      <point x="211" y="730" type="line"/>
      <point x="211" y="701"/>
      <point x="246" y="659"/>
    </contour>
  </outline>
</glyph>
<glyph name="Aogonek" format="1">
  <advance width="677"/>
  <unicode hex="0104"/>
  <outline>
    <contour>
      <point x="620" y="-188" type="line"/>
      <point x="571" y="-180"/>
      <point x="521" y="-135"/>
      <point x="521" y="-106" type="qcurve"/>
      <point x="521" y="-51"/>
      <point x="600" y="0" type="qcurve"/>
      <point x="549" y="0" type="line"/>
      <point x="474" y="193" type="line"/>
      <point x="200" y="193" type="line"/>
      <point x="126" y="0" type="line"/>
      <point x="7" y="0" type="line"/>
      <point x="289" y="710" type="line"/>
      <point x="387" y="710" type="line"/>
      <point x="667" y="0" type="line"/>
      <point x="625" y="-26"/>
      <point x="587" y="-68"/>
      <point x="587" y="-89" type="qcurve"/>
      <point x="587" y="-126"/>
      <point x="645" y="-130" type="qcurve"/>
    </contour>
    <contour>
      <point x="452" y="276" type="line"/>
      <point x="338" y="581" type="line"/>
      <point x="220" y="276" type="line"/>
    </contour>
  </outline>
</glyph>
<glyph name="cdotaccent" format="1">
  <advance width="559"/>
  <unicode hex="010B"/>
  <outline>
    <contour>
      <point x="32" y="262" type="qcurve"/>
      <point x="32" y="317"/>
      <point x="70" y="415"/>
      <point x="141" y="489"/>
      <point x="241" y="532"/>
      <point x="303" y="532" type="qcurve"/>
      <point x="384" y="532"/>
      <point x="501" y="461"/>
      <point x="530" y="402" type="qcurve"/>
      <point x="423" y="368" type="line"/>
      <point x="404" y="401"/>
      <point x="340" y="438"/>
      <point x="301" y="438" type="qcurve"/>
      <point x="268" y="438"/>
      <point x="211" y="412"/>
      <point x="169" y="365"/>
      <point x="145" y="301"/>
      <point x="145" y="262" type="qcurve"/>
      <point x="145" y="224"/>
      <point x="170" y="159"/>
      <point x="213" y="111"/>
      <point x="270" y="84"/>
      <point x="302" y="84" type="qcurve"/>
      <point x="322" y="84"/>
      <point x="362" y="95"/>
      <point x="395" y="115"/>
      <point x="420" y="141"/>
      <point x="426" y="156" type="qcurve"/>
      <point x="534" y="124" type="line"/>
      <point x="508" y="65"/>
      <point x="386" y="-10"/>
      <point x="303" y="-10" type="qcurve"/>
      <point x="242" y="-10"/>
      <point x="142" y="34"/>
      <point x="71" y="109"/>
      <point x="32" y="207"/>
    </contour>
    <contour>
      <point x="252" y="615" type="line"/>
      <point x="252" y="730" type="line"/>
      <point x="351" y="730" type="line"/>
      <point x="351" y="615" type="line"/>
    </contour>
  </outline>
</glyph>
<glyph name="Ebreve" format="1">
  <advance width="603"/>
  <unicode hex="0114"/>
  <outline>
    <contour>
      <point x="567" y="99" type="line"/>
      <point x="567" y="0" type="line"/>
      <point x="80" y="0" type="line"/>
      <point x="80" y="710" type="line"/>
      <point x="558" y="710" type="line"/>
      <point x="558" y="611" type="line"/>
      <point x="192" y="611" type="line"/>
      <point x="192" y="409" type="line"/>
      <point x="509" y="409" type="line"/>
      <point x="509" y="316" type="line"/>
      <point x="192" y="316" type="line"/>
      <point x="192" y="99" type="line"/>
    </contour>
    <contour>
      <point x="330" y="845" type="qcurve"/>
      <point x="352" y="845"/>
      <point x="385" y="885"/>
      <point x="388" y="916" type="qcurve"/>
      <point x="449" y="916" type="line"/>
      <point x="449" y="890"/>
      <point x="431" y="845"/>
      <point x="399" y="812"/>
      <point x="355" y="794"/>
      <point x="330" y="794" type="qcurve"/>
      <point x="304" y="794"/>
      <point x="261" y="812"/>
      <point x="229" y="845"/>
      <point x="211" y="890"/>
      <point x="211" y="916" type="qcurve"/>
      <point x="272" y="916" type="line"/>
      <point x="272" y="887"/>
      <point x="307" y="845"/>
    </contour>
  </outline>
</glyph>
<glyph name="Edotaccent" format="1">
  <advance width="603"/>
  <unicode hex="0116"/>
  <outline>
    <contour>
      <point x="567" y="99" type="line"/>
      <point x="567" y="0" type="line"/>
      <point x="80" y="0" type="line"/>
      <point x="80" y="710" type="line"/>
      <point x="558" y="710" type="line"/>
      <point x="558" y="611" type="line"/>
      <point x="192" y="611" type="line"/>
      <point x="192" y="409" type="line"/>
      <point x="509" y="409" type="line"/>
      <point x="509" y="316" type="line"/>
      <point x="192" y="316" type="line"/>
      <point x="192" y="99" type="line"/>
    </contour>
    <contour>
      <point x="280" y="801" type="line"/>
      <point x="280" y="916" type="line"/>
      <point x="379" y="916" type="line"/>
      <point x="379" y="801" type="line"/>
    </contour>
  </outline>
</glyph>
<glyph name="Hbar" format="1">
  <advance width="752"/>
  <unicode hex="0126"/>
  <outline>
    <contour>
      <point x="668" y="710" type="line"/>
      <point x="668" y="602" type="line"/>
      <point x="718" y="602" type="line"/>
      <point x="718" y="546" type="line"/>
      <point x="668" y="546" type="line"/>
      <point x="668" y="0" type="line"/>
      <point x="555" y="0" type="line"/>
      <point x="555" y="313" type="line"/>
      <point x="197" y="313" type="line"/>
      <point x="197" y="0" type="line"/>
      <point x="85" y="0" type="line"/>
      <point x="85" y="546" type="line"/>
      <point x="34" y="546" type="line"/>
      <point x="34" y="602" type="line"/>
      <point x="85" y="602" type="line"/>
      <point x="85" y="710" type="line"/>
      <point x="197" y="710" type="line"/>
      <point x="197" y="602" type="line"/>
      <point x="555" y="602" type="line"/>
      <point x="555" y="710" type="line"/>
    </contour>
    <contour>
      <point x="555" y="413" type="line"/>
      <point x="555" y="546" type="line"/>
      <point x="197" y="546" type="line"/>
      <point x="197" y="413" type="line"/>
    </contour>
  </outline>
</glyph>
<glyph name="Ibreve" format="1">
  <advance width="272"/>
  <unicode hex="012C"/>
  <outline>
    <contour>
      <point x="80" y="0" type="line"/>
      <point x="80" y="710" type="line"/>
      <point x="192" y="710" type="line"/>
      <point x="192" y="0" type="line"/>
    </contour>
    <contour>
      <point x="136" y="845" type="qcurve"/>
      <point x="158" y="845"/>
      <point x="191" y="885"/>
      <point x="194" y="916" type="qcurve"/>
      <point x="255" y="916" type="line"/>
      <point x="255" y="890"/>
      <point x="237" y="845"/>
      <point x="205" y="812"/>
      <point x="161" y="794"/>
      <point x="136" y="794" type="qcurve"/>
      <point x="110" y="794"/>
      <point x="67" y="812"/>
      <point x="35" y="845"/>
      <point x="17" y="890"/>
      <point x="17" y="916" type="qcurve"/>
      <point x="78" y="916" type="line"/>
      <point x="78" y="887"/>
      <point x="113" y="845"/>
    </contour>
  </outline>
</glyph>
<glyph name="Eng" format="1">
  <advance width="756"/>
  <unicode hex="014A"/>
  <outline>
    <contour>
      <point x="192" y="498" type="line"/>
      <point x="192" y="0" type="line"/>
      <point x="80" y="0" type="line"/>
      <point x="80" y="710" type="line"/>
      <point x="166" y="710" type="line"/>
      <point x="563" y="204" type="line"/>
      <point x="563" y="709" type="line"/>
      <point x="676" y="709" type="line"/>
      <point x="676" y="-15" type="line"/>
      <point x="676" y="-54"/>
      <point x="648" y="-119"/>
      <point x="600" y="-166"/>
      <point x="538" y="-191"/>
      <point x="504" y="-191" type="qcurve"/>
      <point x="469" y="-191"/>
      <point x="404" y="-169"/>
      <point x="378" y="-146" type="qcurve"/>
      <point x="427" y="-72" type="line"/>
      <point x="440" y="-84"/>
      <point x="474" y="-95"/>
      <point x="491" y="-95" type="qcurve"/>
      <point x="520" y="-95"/>
      <point x="566" y="-52"/>
      <point x="566" y="-19" type="qcurve"/>
      <point x="566" y="21" type="line"/>
    </contour>
  </outline>
</glyph>
<glyph name="eng" format="1">
  <advance width="596"/>
  <unicode hex="014B"/>
  <outline>
    <contour>
      <point x="364" y="-191" type="qcurve"/>
      <point x="328" y="-191"/>
      <point x="263" y="-169"/>
      <point x="237" y="-146" type="qcurve"/>
      <point x="286" y="-72" type="line"/>
      <point x="300" y="-84"/>
      <point x="334" y="-95"/>
      <point x="351" y="-95" type="qcurve"/>
      <point x="380" y="-95"/>
      <point x="425" y="-52"/>
      <point x="425" y="-19" type="qcurve"/>
      <point x="425" y="293" type="line"/>
      <point x="425" y="367"/>
      <point x="378" y="434"/>
      <point x="332" y="434" type="qcurve"/>
      <point x="308" y="434"/>
      <point x="260" y="416"/>
      <point x="218" y="383"/>
      <point x="185" y="338"/>
      <point x="176" y="311" type="qcurve"/>
      <point x="176" y="0" type="line"/>
      <point x="66" y="0" type="line"/>
      <point x="66" y="523" type="line"/>
      <point x="166" y="523" type="line"/>
      <point x="166" y="418" type="line"/>
      <point x="196" y="471"/>
      <point x="310" y="532"/>
      <point x="379" y="532" type="qcurve"/>
      <point x="426" y="532"/>
      <point x="487" y="498"/>
      <point x="522" y="439"/>
      <point x="535" y="362"/>
      <point x="535" y="319" type="qcurve"/>
      <point x="535" y="-11" type="line"/>
      <point x="535" y="-51"/>
      <point x="507" y="-117"/>
      <point x="461" y="-165"/>
      <point x="398" y="-191"/>
    </contour>
  </outline>
</glyph>
<glyph name="Rcommaaccent" format="1">
  <advance width="661"/>
  <unicode hex="0156"/>
  <outline>
    <contour>
      <point x="295" y="-213" type="line"/>
      <point x="318" y="-136" type="line"/>
      <point x="286" y="-136" type="line"/>
      <point x="286" y="-48" type="line"/>
      <point x="381" y="-48" type="line"/>
      <point x="381" y="-136" type="line"/>
      <point x="346" y="-213" type="line"/>
    </contour>
    <contour>
      <point x="80" y="0" type="line"/>
      <point x="80" y="710" type="line"/>
      <point x="389" y="710" type="line"/>
      <point x="437" y="710"/>
      <point x="518" y="670"/>
      <point x="576" y="605"/>
      <point x="609" y="522"/>
      <point x="609" y="479" type="qcurve"/>
      <point x="609" y="443"/>
      <point x="589" y="377"/>
      <point x="553" y="321"/>
      <point x="501" y="280"/>
      <point x="470" y="270" type="qcurve"/>
      <point x="637" y="0" type="line"/>
      <point x="510" y="0" type="line"/>
      <point x="356" y="247" type="line"/>
      <point x="192" y="247" type="line"/>
      <point x="192" y="0" type="line"/>
    </contour>
    <contour>
      <point x="192" y="346" type="line"/>
      <point x="388" y="346" type="line"/>
      <point x="412" y="346"/>
      <point x="451" y="367"/>
      <point x="479" y="404"/>
      <point x="495" y="452"/>
      <point x="495" y="479" type="qcurve"/>
      <point x="495" y="506"/>
      <point x="476" y="554"/>
      <point x="445" y="590"/>
      <point x="404" y="611"/>
      <point x="382" y="611" type="qcurve"/>
      <point x="192" y="611" type="line"/>
    </contour>
  </outline>
</glyph>
<glyph name="uni015E" format="1">
  <advance width="611"/>
  <unicode hex="015E"/>
  <outline>
    <contour>
      <point x="241" y="-126" type="line"/>
      <point x="253" y="-133"/>
      <point x="303" y="-146"/>
      <point x="329" y="-146" type="qcurve"/>
      <point x="355" y="-146"/>
      <point x="386" y="-130"/>
      <point x="386" y="-112" type="qcurve"/>
      <point x="386" y="-92"/>
      <point x="357" y="-78"/>
      <point x="334" y="-78" type="qcurve"/>
      <point x="313" y="-78"/>
      <point x="267" y="-86"/>
      <point x="254" y="-90" type="qcurve"/>
      <point x="298" y="-6" type="line"/>
      <point x="222" y="-3"/>
      <point x="83" y="45"/>
      <point x="26" y="89" type="qcurve"/>
      <point x="77" y="185" type="line"/>
      <point x="90" y="172"/>
      <point x="139" y="140"/>
      <point x="204" y="113"/>
      <point x="280" y="94"/>
      <point x="321" y="94" type="qcurve"/>
      <point x="387" y="94"/>
      <point x="459" y="140"/>
      <point x="459" y="185" type="qcurve"/>
      <point x="459" y="212"/>
      <point x="432" y="248"/>
      <point x="382" y="275"/>
      <point x="310" y="297"/>
      <point x="264" y="309" type="qcurve"/>
      <point x="211" y="323"/>
      <point x="132" y="354"/>
      <point x="80" y="398"/>
      <point x="53" y="457"/>
      <point x="53" y="499" type="qcurve"/>
      <point x="53" y="551"/>
      <point x="93" y="632"/>
      <point x="162" y="687"/>
      <point x="256" y="715"/>
      <point x="311" y="715" type="qcurve"/>
      <point x="383" y="715"/>
      <point x="505" y="669"/>
      <point x="551" y="635" type="qcurve"/>
      <point x="500" y="543" type="line"/>
      <point x="490" y="554"/>
      <point x="452" y="579"/>
      <point x="401" y="601"/>
      <point x="340" y="615"/>
      <point x="308" y="615" type="qcurve"/>
      <point x="237" y="615"/>
      <point x="170" y="563"/>
      <point x="170" y="517" type="qcurve"/>
      <point x="170" y="491"/>
      <point x="191" y="458"/>
      <point x="235" y="433"/>
      <point x="301" y="414"/>
      <point x="345" y="403" type="qcurve"/>
      <point x="399" y="390"/>
      <point x="486" y="358"/>
      <point x="546" y="312"/>
      <point x="579" y="245"/>
      <point x="579" y="197" type="qcurve"/>
      <point x="579" y="146"/>
      <point x="543" y="73"/>
      <point x="481" y="23"/>
      <point x="397" y="-3"/>
      <point x="349" y="-6" type="qcurve"/>
      <point x="324" y="-45" type="line"/>
      <point x="332" y="-43"/>
      <point x="350" y="-41"/>
      <point x="358" y="-41" type="qcurve"/>
      <point x="393" y="-41"/>
      <point x="440" y="-73"/>
      <point x="440" y="-108" type="qcurve"/>
      <point x="440" y="-144"/>
      <point x="381" y="-189"/>
      <point x="321" y="-189" type="qcurve"/>
      <point x="289" y="-189"/>
      <point x="238" y="-177"/>
      <point x="218" y="-169" type="qcurve"/>
    </contour>
  </outline>
</glyph>
<glyph name="uni015F" format="1">
  <advance width="496"/>
  <unicode hex="015F"/>
  <outline>
    <contour>
      <point x="178" y="-126" type="line"/>
      <point x="190" y="-133"/>
      <point x="240" y="-146"/>
      <point x="266" y="-146" type="qcurve"/>
      <point x="292" y="-146"/>
      <point x="323" y="-130"/>
      <point x="323" y="-112" type="qcurve"/>
      <point x="323" y="-92"/>
      <point x="294" y="-78"/>
      <point x="271" y="-78" type="qcurve"/>
      <point x="250" y="-78"/>
      <point x="204" y="-86"/>
      <point x="191" y="-90" type="qcurve"/>
      <point x="233" y="-9" type="line"/>
      <point x="175" y="-5"/>
      <point x="64" y="34"/>
      <point x="23" y="69" type="qcurve"/>
      <point x="67" y="139" type="line"/>
      <point x="114" y="105"/>
      <point x="206" y="70"/>
      <point x="254" y="70" type="qcurve"/>
      <point x="303" y="70"/>
      <point x="360" y="108"/>
      <point x="360" y="143" type="qcurve"/>
      <point x="360" y="176"/>
      <point x="296" y="206"/>
      <point x="228" y="224" type="qcurve"/>
      <point x="179" y="237"/>
      <point x="109" y="261"/>
      <point x="65" y="293"/>
      <point x="45" y="335"/>
      <point x="45" y="365" type="qcurve"/>
      <point x="45" y="405"/>
      <point x="76" y="467"/>
      <point x="131" y="510"/>
      <point x="205" y="532"/>
      <point x="248" y="532" type="qcurve"/>
      <point x="307" y="532"/>
      <point x="409" y="496"/>
      <point x="449" y="462" type="qcurve"/>
      <point x="402" y="396" type="line"/>
      <point x="329" y="454"/>
      <point x="247" y="454" type="qcurve"/>
      <point x="205" y="454"/>
      <point x="148" y="419"/>
      <point x="148" y="381" type="qcurve"/>
      <point x="148" y="365"/>
      <point x="160" y="343"/>
      <point x="187" y="327"/>
      <point x="230" y="314"/>
      <point x="262" y="306" type="qcurve"/>
      <point x="315" y="293"/>
      <point x="392" y="267"/>
      <point x="442" y="232"/>
      <point x="466" y="185"/>
      <point x="466" y="152" type="qcurve"/>
      <point x="466" y="83"/>
      <point x="369" y="-2"/>
      <point x="284" y="-9" type="qcurve"/>
      <point x="261" y="-45" type="line"/>
      <point x="269" y="-43"/>
      <point x="287" y="-41"/>
      <point x="295" y="-41" type="qcurve"/>
      <point x="330" y="-41"/>
      <point x="377" y="-73"/>
      <point x="377" y="-108" type="qcurve"/>
      <point x="377" y="-144"/>
      <point x="318" y="-189"/>
      <point x="258" y="-189" type="qcurve"/>
      <point x="226" y="-189"/>
      <point x="175" y="-177"/>
      <point x="155" y="-169" type="qcurve"/>
    </contour>
  </outline>
</glyph>
<glyph name="uni0162" format="1">
  <advance width="615"/>
  <unicode hex="0162"/>
  <outline>
    <contour>
      <point x="232" y="-126" type="line"/>
      <point x="244" y="-133"/>
      <point x="294" y="-146"/>
      <point x="320" y="-146" type="qcurve"/>
      <point x="346" y="-146"/>
      <point x="377" y="-130"/>
      <point x="377" y="-112" type="qcurve"/>
      <point x="377" y="-92"/>
      <point x="348" y="-78"/>
      <point x="325" y="-78" type="qcurve"/>
      <point x="304" y="-78"/>
      <point x="258" y="-86"/>
      <point x="245" y="-90" type="qcurve"/>
      <point x="292" y="0" type="line"/>
      <point x="251" y="0" type="line"/>
      <point x="251" y="611" type="line"/>
      <point x="14" y="611" type="line"/>
      <point x="14" y="710" type="line"/>
      <point x="600" y="710" type="line"/>
      <point x="600" y="611" type="line"/>
      <point x="364" y="611" type="line"/>
      <point x="364" y="0" type="line"/>
      <point x="344" y="0" type="line"/>
      <point x="315" y="-45" type="line"/>
      <point x="323" y="-43"/>
      <point x="341" y="-41"/>
      <point x="349" y="-41" type="qcurve"/>
      <point x="384" y="-41"/>
      <point x="431" y="-73"/>
      <point x="431" y="-108" type="qcurve"/>
      <point x="431" y="-144"/>
      <point x="372" y="-189"/>
      <point x="312" y="-189" type="qcurve"/>
      <point x="280" y="-189"/>
      <point x="229" y="-177"/>
      <point x="209" y="-169" type="qcurve"/>
    </contour>
  </outline>
</glyph>
<glyph name="Tcaron" format="1">
  <advance width="616"/>
  <unicode hex="0164"/>
  <outline>
    <contour>
      <point x="227" y="916" type="line"/>
      <point x="312" y="853" type="line"/>
      <point x="397" y="916" type="line"/>
      <point x="456" y="888" type="line"/>
      <point x="352" y="793" type="line"/>
      <point x="273" y="793" type="line"/>
      <point x="169" y="888" type="line"/>
    </contour>
    <contour>
      <point x="601" y="611" type="line"/>
      <point x="365" y="611" type="line"/>
      <point x="365" y="0" type="line"/>
      <point x="252" y="0" type="line"/>
      <point x="252" y="611" type="line"/>
      <point x="15" y="611" type="line"/>
      <point x="15" y="710" type="line"/>
      <point x="601" y="710" type="line"/>
    </contour>
  </outline>
</glyph>
<glyph name="uring" format="1">
  <advance width="609"/>
  <unicode hex="016F"/>
  <outline>
    <contour>
      <point x="209" y="657" type="qcurve"/>
      <point x="209" y="692"/>
      <point x="258" y="730"/>
      <point x="297" y="730" type="qcurve"/>
      <point x="337" y="730"/>
      <point x="386" y="692"/>
      <point x="386" y="657" type="qcurve"/>
      <point x="386" y="623"/>
      <point x="337" y="584"/>
      <point x="297" y="584" type="qcurve"/>
      <point x="258" y="584"/>
      <point x="209" y="623"/>
    </contour>
    <contour>
      <point x="297" y="694" type="qcurve"/>
      <point x="280" y="694"/>
      <point x="257" y="674"/>
      <point x="257" y="657" type="qcurve"/>
      <point x="257" y="642"/>
      <point x="280" y="620"/>
      <point x="297" y="620" type="qcurve"/>
      <point x="314" y="620"/>
      <point x="338" y="641"/>
      <point x="338" y="657" type="qcurve"/>
      <point x="338" y="674"/>
      <point x="314" y="694"/>
    </contour>
    <contour>
      <point x="227" y="-10" type="qcurve"/>
      <point x="145" y="-10"/>
      <point x="61" y="97"/>
      <point x="61" y="203" type="qcurve"/>
      <point x="61" y="523" type="line"/>
      <point x="171" y="523" type="line"/>
      <point x="171" y="225" type="line"/>
      <point x="171" y="84"/>
      <point x="271" y="84" type="qcurve"/>
      <point x="318" y="84"/>
      <point x="402" y="142"/>
      <point x="425" y="197" type="qcurve"/>
      <point x="425" y="523" type="line"/>
      <point x="535" y="523" type="line"/>
      <point x="535" y="130" type="line"/>
      <point x="535" y="111"/>
      <point x="548" y="95"/>
      <point x="565" y="94" type="qcurve"/>
      <point x="565" y="0" type="line"/>
      <point x="548" y="-3"/>
      <point x="526" y="-5"/>
      <point x="516" y="-5" type="qcurve"/>
      <point x="486" y="-5"/>
      <point x="444" y="28"/>
      <point x="443" y="54" type="qcurve"/>
      <point x="441" y="106" type="line"/>
      <point x="406" y="49"/>
      <point x="294" y="-10"/>
    </contour>
  </outline>
</glyph>
<glyph name="iinvertedbreve" format="1">
  <advance width="242"/>
  <unicode hex="020B"/>
  <outline>
    <contour>
      <point x="122" y="679" type="qcurve"/>
      <point x="99" y="679"/>
      <point x="64" y="637"/>
      <point x="64" y="608" type="qcurve"/>
      <point x="3" y="608" type="line"/>
      <point x="3" y="634"/>
      <point x="21" y="679"/>
      <point x="53" y="712"/>
      <point x="96" y="730"/>
      <point x="122" y="730" type="qcurve"/>
      <point x="147" y="730"/>
      <point x="191" y="712"/>
      <point x="223" y="679"/>
      <point x="241" y="634"/>
      <point x="241" y="608" type="qcurve"/>
      <point x="180" y="608" type="line"/>
      <point x="177" y="639"/>
      <point x="144" y="679"/>
    </contour>
    <contour>
      <point x="66" y="0" type="line"/>
      <point x="66" y="523" type="line"/>
      <point x="176" y="523" type="line"/>
      <point x="176" y="0" type="line"/>
    </contour>
  </outline>
</glyph>
<glyph name="dotlessj" format="1">
  <advance width="242"/>
  <unicode hex="0237"/>
  <outline>
    <contour>
      <point x="121" y="523" type="move" name="top"/>
    </contour>
    <contour>
      <point x="5" y="-191" type="qcurve"/>
      <point x="-31" y="-191"/>
      <point x="-96" y="-169"/>
      <point x="-122" y="-146" type="qcurve"/>
      <point x="-73" y="-72" type="line"/>
      <point x="-59" y="-84"/>
      <point x="-25" y="-95"/>
      <point x="-8" y="-95" type="qcurve"/>
      <point x="21" y="-95"/>
      <point x="66" y="-52"/>
      <point x="66" y="-19" type="qcurve"/>
      <point x="66" y="523" type="line"/>
      <point x="176" y="523" type="line"/>
      <point x="176" y="-11" type="line"/>
      <point x="176" y="-51"/>
      <point x="148" y="-117"/>
      <point x="102" y="-165"/>
      <point x="39" y="-191"/>
    </contour>
  </outline>
</glyph>
<glyph name="tilde" format="1">
  <advance width="426"/>
  <unicode hex="02DC"/>
  <outline>
    <contour>
      <point x="214" y="523" type="move" name="_top"/>
    </contour>
    <contour>
      <point x="277" y="615" type="qcurve"/>
      <point x="254" y="615"/>
      <point x="220" y="628"/>
      <point x="191" y="645"/>
      <point x="163" y="658"/>
      <point x="147" y="658" type="qcurve"/>
      <point x="130" y="658"/>
      <point x="111" y="644"/>
      <point x="101" y="627"/>
      <point x="98" y="611"/>
      <point x="98" y="610" type="qcurve"/>
      <point x="36" y="610" type="line"/>
      <point x="36" y="618"/>
      <point x="46" y="656"/>
      <point x="71" y="695"/>
      <point x="112" y="725"/>
      <point x="143" y="725" type="qcurve"/>
      <point x="165" y="725"/>
      <point x="198" y="711"/>
      <point x="227" y="695"/>
      <point x="256" y="681"/>
      <point x="274" y="681" type="qcurve"/>
      <point x="292" y="681"/>
      <point x="314" y="695"/>
      <point x="325" y="713"/>
      <point x="328" y="728"/>
      <point x="328" y="730" type="qcurve"/>
      <point x="391" y="730" type="line"/>
      <point x="391" y="724"/>
      <point x="380" y="686"/>
      <point x="354" y="646"/>
      <point x="310" y="615"/>
    </contour>
  </outline>
</glyph>
<glyph name="uni0311" format="1">
  <advance width="312"/>
  <unicode hex="0311"/>
  <outline>
    <contour>
      <point x="156" y="523" type="move" name="_top"/>
    </contour>
    <contour>
      <point x="156" y="679" type="qcurve"/>
      <point x="133" y="679"/>
      <point x="98" y="637"/>
      <point x="98" y="608" type="qcurve"/>
      <point x="37" y="608" type="line"/>
      <point x="37" y="634"/>
      <point x="55" y="679"/>
      <point x="87" y="712"/>
      <point x="130" y="730"/>
      <point x="156" y="730" type="qcurve"/>
      <point x="181" y="730"/>
      <point x="225" y="712"/>
      <point x="257" y="679"/>
      <point x="275" y="634"/>
      <point x="275" y="608" type="qcurve"/>
      <point x="214" y="608" type="line"/>
      <point x="211" y="639"/>
      <point x="178" y="679"/>
    </contour>
  </outline>
</glyph>
<glyph name="uni0394" format="1">
  <advance width="650"/>
  <unicode hex="0394"/>
  <outline>
    <contour>
      <point x="629" y="85" type="line"/>
      <point x="629" y="0" type="line"/>
      <point x="20" y="0" type="line"/>
      <point x="20" y="85" type="line"/>
      <point x="279" y="710" type="line"/>
      <point x="371" y="710" type="line"/>
    </contour>
    <contour>
      <point x="512" y="99" type="line"/>
      <point x="325" y="582" type="line"/>
      <point x="139" y="99" type="line"/>
    </contour>
  </outline>
</glyph>
<glyph name="uni0400" format="1">
  <advance width="605"/>
  <unicode hex="0400"/>
  <outline>
    <contour>
      <point x="569" y="99" type="line"/>
      <point x="569" y="0" type="line"/>
      <point x="82" y="0" type="line"/>
      <point x="82" y="710" type="line"/>
      <point x="560" y="710" type="line"/>
      <point x="560" y="611" type="line"/>
      <point x="194" y="611" type="line"/>
      <point x="194" y="409" type="line"/>
      <point x="511" y="409" type="line"/>
      <point x="511" y="316" type="line"/>
      <point x="194" y="316" type="line"/>
      <point x="194" y="99" type="line"/>
    </contour>
    <contour>
      <point x="217" y="917" type="line"/>
      <point x="322" y="917" type="line"/>
      <point x="379" y="807" type="line"/>
      <point x="309" y="785" type="line"/>
    </contour>
  </outline>
</glyph>
<glyph name="uni0412" format="1">
  <advance width="678"/>
  <unicode hex="0412"/>
  <outline>
    <contour>
      <point x="625" y="183" type="qcurve"/>
      <point x="625" y="140"/>
      <point x="590" y="72"/>
      <point x="531" y="25"/>
      <point x="451" y="0"/>
      <point x="406" y="0" type="qcurve"/>
      <point x="67" y="0" type="line"/>
      <point x="67" y="710" type="line"/>
      <point x="433" y="710" type="line"/>
      <point x="470" y="710"/>
      <point x="530" y="678"/>
      <point x="572" y="627"/>
      <point x="595" y="562"/>
      <point x="595" y="529" type="qcurve"/>
      <point x="595" y="477"/>
      <point x="542" y="386"/>
      <point x="493" y="364" type="qcurve"/>
      <point x="554" y="346"/>
      <point x="625" y="251"/>
    </contour>
    <contour>
      <point x="510" y="204" type="qcurve"/>
      <point x="510" y="226"/>
      <point x="495" y="266"/>
      <point x="470" y="296"/>
      <point x="434" y="314"/>
      <point x="413" y="314" type="qcurve"/>
      <point x="179" y="314" type="line"/>
      <point x="179" y="97" type="line"/>
      <point x="406" y="97" type="line"/>
      <point x="428" y="97"/>
      <point x="466" y="114"/>
      <point x="494" y="143"/>
      <point x="510" y="182"/>
    </contour>
    <contour>
      <point x="179" y="613" type="line"/>
      <point x="179" y="404" type="line"/>
      <point x="385" y="404" type="line"/>
      <point x="406" y="404"/>
      <point x="441" y="420"/>
      <point x="468" y="447"/>
      <point x="483" y="485"/>
      <point x="483" y="508" type="qcurve"/>
      <point x="483" y="554"/>
      <point x="431" y="613"/>
      <point x="391" y="613" type="qcurve"/>
    </contour>
  </outline>
</glyph>
<glyph name="uni041E" format="1">
  <advance width="752"/>
  <unicode hex="041E"/>
  <outline>
    <contour>
      <point x="376" y="-5" type="qcurve"/>
      <point x="300" y="-5"/>
      <point x="175" y="56"/>
      <point x="85" y="157"/>
      <point x="36" y="287"/>
      <point x="36" y="355" type="qcurve"/>
      <point x="36" y="426"/>
      <point x="88" y="556"/>
      <point x="179" y="656"/>
      <point x="304" y="715"/>
      <point x="378" y="715" type="qcurve"/>
      <point x="454" y="715"/>
      <point x="579" y="652"/>
      <point x="668" y="550"/>
      <point x="717" y="421"/>
      <point x="717" y="354" type="qcurve"/>
      <point x="717" y="283"/>
      <point x="666" y="153"/>
      <point x="574" y="54"/>
      <point x="449" y="-5"/>
    </contour>
    <contour>
      <point x="150" y="355" type="qcurve"/>
      <point x="150" y="305"/>
      <point x="182" y="211"/>
      <point x="241" y="139"/>
      <point x="325" y="96"/>
      <point x="377" y="96" type="qcurve"/>
      <point x="431" y="96"/>
      <point x="514" y="141"/>
      <point x="572" y="215"/>
      <point x="602" y="307"/>
      <point x="602" y="355" type="qcurve"/>
      <point x="602" y="406"/>
      <point x="570" y="499"/>
      <point x="511" y="570"/>
      <point x="428" y="613"/>
      <point x="377" y="613" type="qcurve"/>
      <point x="323" y="613"/>
      <point x="239" y="568"/>
      <point x="181" y="496"/>
      <point x="150" y="403"/>
    </contour>
  </outline>
</glyph>
<glyph name="uni0424" format="1">
  <advance width="764"/>
  <unicode hex="0424"/>
  <outline>
    <contour>
      <point x="330" y="54" type="line"/>
      <point x="184" y="68"/>
      <point x="30" y="229"/>
      <point x="30" y="362" type="qcurve"/>
      <point x="30" y="428"/>
      <point x="69" y="536"/>
      <point x="145" y="616"/>
      <point x="257" y="666"/>
      <point x="330" y="673" type="qcurve"/>
      <point x="330" y="764" type="line"/>
      <point x="440" y="764" type="line"/>
      <point x="440" y="673" type="line"/>
      <point x="511" y="666"/>
      <point x="620" y="616"/>
      <point x="694" y="536"/>
      <point x="732" y="428"/>
      <point x="732" y="362" type="qcurve"/>
      <point x="732" y="229"/>
      <point x="582" y="68"/>
      <point x="440" y="55" type="qcurve"/>
      <point x="440" y="-38" type="line"/>
      <point x="330" y="-38" type="line"/>
    </contour>
    <contour>
      <point x="440" y="157" type="line"/>
      <point x="620" y="181"/>
      <point x="620" y="365" type="qcurve"/>
      <point x="620" y="548"/>
      <point x="440" y="569" type="qcurve"/>
    </contour>
    <contour>
      <point x="330" y="569" type="line"/>
      <point x="142" y="548"/>
      <point x="142" y="365" type="qcurve"/>
      <point x="142" y="180"/>
      <point x="330" y="157" type="qcurve"/>
    </contour>
  </outline>
</glyph>
<glyph name="uni0443" format="1">
  <advance width="547"/>
  <unicode hex="0443"/>
  <outline>
    <contour>
      <point x="73" y="-107" type="line"/>
      <point x="90" y="-120"/>
      <point x="122" y="-130"/>
      <point x="138" y="-130" type="qcurve"/>
      <point x="164" y="-130"/>
      <point x="205" y="-73"/>
      <point x="224" y="0" type="qcurve"/>
      <point x="9" y="523" type="line"/>
      <point x="122" y="523" type="line"/>
      <point x="284" y="97" type="line"/>
      <point x="428" y="523" type="line"/>
      <point x="532" y="523" type="line"/>
      <point x="315" y="-70" type="line"/>
      <point x="283" y="-157"/>
      <point x="204" y="-225"/>
      <point x="148" y="-225" type="qcurve"/>
      <point x="124" y="-225"/>
      <point x="88" y="-215"/>
      <point x="73" y="-202" type="qcurve"/>
    </contour>
  </outline>
</glyph>
<glyph name="uni0447" format="1">
  <advance width="497"/>
  <unicode hex="0447"/>
  <outline>
    <contour>
      <point x="429" y="0" type="line"/>
      <point x="321" y="0" type="line"/>
      <point x="321" y="198" type="line"/>
      <point x="298" y="190"/>
      <point x="250" y="183"/>
      <point x="207" y="183" type="qcurve"/>
      <point x="161" y="183"/>
      <point x="97" y="213"/>
      <point x="56" y="263"/>
      <point x="37" y="329"/>
      <point x="37" y="365" type="qcurve"/>
      <point x="37" y="523" type="line"/>
      <point x="144" y="523" type="line"/>
      <point x="144" y="384" type="line"/>
      <point x="144" y="322"/>
      <point x="191" y="274"/>
      <point x="233" y="274" type="qcurve"/>
      <point x="268" y="274"/>
      <point x="309" y="286"/>
      <point x="321" y="296" type="qcurve"/>
      <point x="321" y="523" type="line"/>
      <point x="429" y="523" type="line"/>
    </contour>
  </outline>
</glyph>
<glyph name="uni0452" format="1">
  <advance width="601"/>
  <unicode hex="0452"/>
  <outline>
    <contour>
      <point x="537" y="-11" type="line"/>
      <point x="537" y="-50"/>
      <point x="511" y="-116"/>
      <point x="464" y="-164"/>
      <point x="400" y="-191"/>
      <point x="363" y="-191" type="qcurve"/>
      <point x="328" y="-191"/>
      <point x="263" y="-167"/>
      <point x="240" y="-146" type="qcurve"/>
      <point x="289" y="-72" type="line"/>
      <point x="312" y="-95"/>
      <point x="350" y="-95" type="qcurve"/>
      <point x="383" y="-95"/>
      <point x="427" y="-51"/>
      <point x="427" y="-19" type="qcurve"/>
      <point x="427" y="254" type="line"/>
      <point x="427" y="325"/>
      <point x="376" y="395"/>
      <point x="330" y="395" type="qcurve"/>
      <point x="303" y="395"/>
      <point x="255" y="372"/>
      <point x="215" y="333"/>
      <point x="186" y="278"/>
      <point x="178" y="247" type="qcurve"/>
      <point x="178" y="0" type="line"/>
      <point x="68" y="0" type="line"/>
      <point x="68" y="576" type="line"/>
      <point x="-6" y="576" type="line"/>
      <point x="-6" y="650" type="line"/>
      <point x="68" y="650" type="line"/>
      <point x="68" y="730" type="line"/>
      <point x="178" y="730" type="line"/>
      <point x="178" y="650" type="line"/>
      <point x="399" y="650" type="line"/>
      <point x="399" y="576" type="line"/>
      <point x="178" y="576" type="line"/>
      <point x="178" y="364" type="line"/>
      <point x="204" y="426"/>
      <point x="307" y="493"/>
      <point x="373" y="493" type="qcurve"/>
      <point x="417" y="493"/>
      <point x="479" y="463"/>
      <point x="519" y="407"/>
      <point x="537" y="329"/>
      <point x="537" y="281" type="qcurve"/>
    </contour>
  </outline>
</glyph>
<glyph name="ytilde" format="1">
  <advance width="547"/>
  <unicode hex="1EF9"/>
  <outline>
    <contour>
      <point x="84" y="-123" type="line"/>
      <point x="99" y="-126"/>
      <point x="128" y="-130"/>
      <point x="137" y="-130" type="qcurve"/>
      <point x="150" y="-130"/>
      <point x="169" y="-119"/>
      <point x="189" y="-91"/>
      <point x="210" y="-40"/>
      <point x="224" y="0" type="qcurve"/>
      <point x="9" y="523" type="line"/>
      <point x="122" y="523" type="line"/>
      <point x="284" y="97" type="line"/>
      <point x="428" y="523" type="line"/>
      <point x="532" y="523" type="line"/>
      <point x="295" y="-121" type="line"/>
      <point x="279" y="-166"/>
      <point x="200" y="-227"/>
      <point x="138" y="-227" type="qcurve"/>
      <point x="126" y="-227"/>
      <point x="100" y="-224"/>
      <point x="84" y="-219" type="qcurve"/>
    </contour>
    <contour>
      <point x="346" y="615" type="qcurve"/>
      <point x="323" y="615"/>
      <point x="289" y="628"/>
      <point x="260" y="645"/>
      <point x="232" y="658"/>
      <point x="216" y="658" type="qcurve"/>
      <point x="199" y="658"/>
      <point x="180" y="644"/>
      <point x="170" y="627"/>
      <point x="167" y="611"/>
      <point x="167" y="610" type="qcurve"/>
      <point x="105" y="610" type="line"/>
      <point x="105" y="618"/>
      <point x="115" y="656"/>
      <point x="140" y="695"/>
      <point x="181" y="725"/>
      <point x="212" y="725" type="qcurve"/>
      <point x="234" y="725"/>
      <point x="267" y="711"/>
      <point x="296" y="695"/>
      <point x="325" y="681"/>
      <point x="343" y="681" type="qcurve"/>
      <point x="361" y="681"/>
      <point x="383" y="695"/>
      <point x="394" y="713"/>
      <point x="397" y="728"/>
      <point x="397" y="730" type="qcurve"/>
      <point x="460" y="730" type="line"/>
      <point x="460" y="724"/>
      <point x="449" y="686"/>
      <point x="423" y="646"/>
      <point x="379" y="615"/>
    </contour>
  </outline>
</glyph>
<glyph name="quotedblleft" format="1">
  <advance width="387"/>
  <unicode hex="201C"/>
  <outline>
    <contour>
      <point x="153" y="730" type="line"/>
      <point x="132" y="612" type="line"/>
      <point x="167" y="612" type="line"/>
      <point x="167" y="488" type="line"/>
      <point x="59" y="488" type="line"/>
      <point x="59" y="613" type="line"/>
      <point x="92" y="730" type="line"/>
    </contour>
    <contour>
      <point x="315" y="730" type="line"/>
      <point x="294" y="612" type="line"/>
      <point x="329" y="612" type="line"/>
      <point x="329" y="488" type="line"/>
      <point x="221" y="488" type="line"/>
      <point x="221" y="613" type="line"/>
      <point x="254" y="730" type="line"/>
    </contour>
  </outline>
</glyph>
<glyph name="foursuperior" format="1">
  <advance width="400"/>
  <unicode hex="2074"/>
  <outline>
    <contour>
      <point x="246" y="400" type="line"/>
      <point x="246" y="495" type="line"/>
      <point x="22" y="495" type="line"/>
      <point x="22" y="560" type="line"/>
      <point x="266" y="812" type="line"/>
      <point x="312" y="812" type="line"/>
      <point x="312" y="561" type="line"/>
      <point x="372" y="561" type="line"/>
      <point x="372" y="495" type="line"/>
      <point x="312" y="495" type="line"/>
      <point x="312" y="400" type="line"/>
    </contour>
    <contour>
      <point x="89" y="561" type="line"/>
      <point x="248" y="561" type="line"/>
      <point x="248" y="728" type="line"/>
    </contour>
  </outline>
</glyph>
<glyph name="fivesuperior" format="1">
  <advance width="387"/>
  <unicode hex="2075"/>
  <outline>
    <contour>
      <point x="198" y="665" type="qcurve"/>
      <point x="232" y="665"/>
      <point x="290" y="646"/>
      <point x="333" y="611"/>
      <point x="358" y="562"/>
      <point x="358" y="533" type="qcurve"/>
      <point x="358" y="502"/>
      <point x="331" y="451"/>
      <point x="284" y="414"/>
      <point x="220" y="394"/>
      <point x="183" y="394" type="qcurve"/>
      <point x="132" y="394"/>
      <point x="48" y="433"/>
      <point x="27" y="467" type="qcurve"/>
      <point x="68" y="510" type="line"/>
      <point x="88" y="486"/>
      <point x="149" y="458"/>
      <point x="187" y="458" type="qcurve"/>
      <point x="230" y="458"/>
      <point x="289" y="498"/>
      <point x="289" y="535" type="qcurve"/>
      <point x="289" y="555"/>
      <point x="272" y="585"/>
      <point x="244" y="604"/>
      <point x="210" y="614"/>
      <point x="193" y="614" type="qcurve"/>
      <point x="164" y="614"/>
      <point x="111" y="588"/>
      <point x="97" y="568" type="qcurve"/>
      <point x="38" y="568" type="line"/>
      <point x="42" y="592"/>
      <point x="58" y="659"/>
      <point x="75" y="729"/>
      <point x="90" y="792"/>
      <point x="93" y="812" type="qcurve"/>
      <point x="329" y="812" type="line"/>
      <point x="329" y="746" type="line"/>
      <point x="142" y="746" type="line"/>
      <point x="115" y="643" type="line"/>
      <point x="129" y="653"/>
      <point x="171" y="665"/>
    </contour>
  </outline>
</glyph>
<glyph name="eightsuperior" format="1">
  <advance width="412"/>
  <unicode hex="2078"/>
  <outline>
    <contour>
      <point x="377" y="518" type="qcurve"/>
      <point x="377" y="491"/>
      <point x="349" y="445"/>
      <point x="302" y="412"/>
      <point x="240" y="394"/>
      <point x="205" y="394" type="qcurve"/>
      <point x="169" y="394"/>
      <point x="106" y="414"/>
      <point x="60" y="448"/>
      <point x="34" y="494"/>
      <point x="34" y="520" type="qcurve"/>
      <point x="34" y="559"/>
      <point x="87" y="606"/>
      <point x="122" y="620" type="qcurve"/>
      <point x="93" y="631"/>
      <point x="50" y="671"/>
      <point x="50" y="702" type="qcurve"/>
      <point x="50" y="727"/>
      <point x="78" y="768"/>
      <point x="122" y="796"/>
      <point x="178" y="812"/>
      <point x="206" y="812" type="qcurve"/>
      <point x="234" y="812"/>
      <point x="289" y="797"/>
      <point x="333" y="768"/>
      <point x="361" y="728"/>
      <point x="361" y="703" type="qcurve"/>
      <point x="361" y="673"/>
      <point x="320" y="631"/>
      <point x="289" y="620" type="qcurve"/>
      <point x="327" y="606"/>
      <point x="377" y="555"/>
    </contour>
    <contour>
      <point x="310" y="525" type="qcurve"/>
      <point x="310" y="540"/>
      <point x="292" y="565"/>
      <point x="262" y="581"/>
      <point x="225" y="590"/>
      <point x="206" y="590" type="qcurve"/>
      <point x="186" y="590"/>
      <point x="148" y="581"/>
      <point x="119" y="564"/>
      <point x="102" y="540"/>
      <point x="102" y="525" type="qcurve"/>
      <point x="102" y="510"/>
      <point x="121" y="485"/>
      <point x="151" y="469"/>
      <point x="188" y="460"/>
      <point x="207" y="460" type="qcurve"/>
      <point x="226" y="460"/>
      <point x="263" y="469"/>
      <point x="292" y="486"/>
      <point x="310" y="510"/>
    </contour>
    <contour>
      <point x="117" y="697" type="qcurve"/>
      <point x="117" y="685"/>
      <point x="133" y="666"/>
      <point x="158" y="653"/>
      <point x="190" y="646"/>
      <point x="206" y="646" type="qcurve"/>
      <point x="221" y="646"/>
      <point x="253" y="653"/>
      <point x="279" y="666"/>
      <point x="295" y="685"/>
      <point x="295" y="697" type="qcurve"/>
      <point x="295" y="709"/>
      <point x="280" y="728"/>
      <point x="255" y="741"/>
      <point x="223" y="748"/>
      <point x="206" y="748" type="qcurve"/>
      <point x="171" y="748"/>
      <point x="117" y="720"/>
    </contour>
  </outline>
</glyph>
<glyph name="threeinferior" format="1">
  <advance width="401"/>
  <unicode hex="2083"/>
  <outline>
    <contour>
      <point x="191" y="-87" type="qcurve"/>
      <point x="128" y="-87"/>
      <point x="42" y="-45"/>
      <point x="30" y="-5" type="qcurve"/>
      <point x="67" y="43" type="line"/>
      <point x="74" y="22"/>
      <point x="138" y="-21"/>
      <point x="190" y="-21" type="qcurve"/>
      <point x="235" y="-21"/>
      <point x="297" y="10"/>
      <point x="297" y="38" type="qcurve"/>
      <point x="297" y="69"/>
      <point x="217" y="101"/>
      <point x="148" y="101" type="qcurve"/>
      <point x="125" y="101" type="line"/>
      <point x="125" y="162" type="line"/>
      <point x="148" y="162" type="line"/>
      <point x="210" y="162"/>
      <point x="283" y="189"/>
      <point x="283" y="219" type="qcurve"/>
      <point x="283" y="232"/>
      <point x="267" y="253"/>
      <point x="241" y="268"/>
      <point x="207" y="275"/>
      <point x="190" y="275" type="qcurve"/>
      <point x="149" y="275"/>
      <point x="93" y="246"/>
      <point x="76" y="223" type="qcurve"/>
      <point x="32" y="276" type="line"/>
      <point x="53" y="305"/>
      <point x="141" y="336"/>
      <point x="190" y="336" type="qcurve"/>
      <point x="225" y="336"/>
      <point x="285" y="319"/>
      <point x="329" y="289"/>
      <point x="354" y="247"/>
      <point x="354" y="223" type="qcurve"/>
      <point x="354" y="188"/>
      <point x="306" y="143"/>
      <point x="261" y="134" type="qcurve"/>
      <point x="309" y="127"/>
      <point x="365" y="68"/>
      <point x="365" y="28" type="qcurve"/>
      <point x="365" y="-1"/>
      <point x="336" y="-44"/>
      <point x="288" y="-73"/>
      <point x="225" y="-87"/>
    </contour>
  </outline>
</glyph>
<glyph name="sixinferior" format="1">
  <advance width="417"/>
  <unicode hex="2086"/>
  <outline>
    <contour>
      <point x="387" y="56" type="qcurve"/>
      <point x="387" y="26"/>
      <point x="360" y="-26"/>
      <point x="313" y="-65"/>
      <point x="249" y="-87"/>
      <point x="212" y="-87" type="qcurve"/>
      <point x="133" y="-87"/>
      <point x="37" y="10"/>
      <point x="37" y="100" type="qcurve"/>
      <point x="37" y="215"/>
      <point x="136" y="334"/>
      <point x="221" y="334" type="qcurve"/>
      <point x="267" y="334"/>
      <point x="343" y="300"/>
      <point x="366" y="268" type="qcurve"/>
      <point x="326" y="222" type="line"/>
      <point x="312" y="245"/>
      <point x="253" y="271"/>
      <point x="219" y="271" type="qcurve"/>
      <point x="165" y="271"/>
      <point x="100" y="205"/>
      <point x="99" y="144" type="qcurve"/>
      <point x="115" y="167"/>
      <point x="181" y="194"/>
      <point x="216" y="194" type="qcurve"/>
      <point x="253" y="194"/>
      <point x="316" y="173"/>
      <point x="361" y="135"/>
      <point x="387" y="85"/>
    </contour>
    <contour>
      <point x="214" y="-27" type="qcurve"/>
      <point x="236" y="-27"/>
      <point x="276" y="-14"/>
      <point x="306" y="9"/>
      <point x="323" y="38"/>
      <point x="323" y="55" type="qcurve"/>
      <point x="323" y="89"/>
      <point x="259" y="136"/>
      <point x="213" y="136" type="qcurve"/>
      <point x="190" y="136"/>
      <point x="150" y="123"/>
      <point x="120" y="102"/>
      <point x="103" y="72"/>
      <point x="103" y="56" type="qcurve"/>
      <point x="103" y="39"/>
      <point x="121" y="9"/>
      <point x="151" y="-14"/>
      <point x="191" y="-27"/>
    </contour>
  </outline>
</glyph>
<glyph name="oneeighth" format="1">
  <advance width="919"/>
  <unicode hex="215B"/>
  <outline>
    <contour>
      <point x="135" y="40" type="line"/>
      <point x="416" y="373" type="line"/>
      <point x="680" y="716" type="line"/>
      <point x="732" y="671" type="line"/>
      <point x="456" y="342" type="line"/>
      <point x="186" y="-6" type="line"/>
    </contour>
    <contour>
      <point x="279" y="379" type="line"/>
      <point x="279" y="313" type="line"/>
      <point x="60" y="313" type="line"/>
      <point x="60" y="379" type="line"/>
      <point x="139" y="379" type="line"/>
      <point x="139" y="658" type="line"/>
      <point x="134" y="651"/>
      <point x="112" y="634"/>
      <point x="85" y="619"/>
      <point x="56" y="608"/>
      <point x="44" y="608" type="qcurve"/>
      <point x="44" y="674" type="line"/>
      <point x="60" y="674"/>
      <point x="93" y="691"/>
      <point x="121" y="712"/>
      <point x="139" y="730"/>
      <point x="139" y="731" type="qcurve"/>
      <point x="206" y="731" type="line"/>
      <point x="206" y="379" type="line"/>
    </contour>
    <contour>
      <point x="884" y="119" type="qcurve"/>
      <point x="884" y="92"/>
      <point x="856" y="46"/>
      <point x="809" y="13"/>
      <point x="747" y="-5"/>
      <point x="712" y="-5" type="qcurve"/>
      <point x="676" y="-5"/>
      <point x="613" y="15"/>
      <point x="567" y="49"/>
      <point x="541" y="95"/>
      <point x="541" y="121" type="qcurve"/>
      <point x="541" y="160"/>
      <point x="594" y="208"/>
      <point x="629" y="222" type="qcurve"/>
      <point x="600" y="233"/>
      <point x="557" y="272"/>
      <point x="557" y="303" type="qcurve"/>
      <point x="557" y="328"/>
      <point x="585" y="369"/>
      <point x="629" y="397"/>
      <point x="685" y="413"/>
      <point x="713" y="413" type="qcurve"/>
      <point x="741" y="413"/>
      <point x="796" y="398"/>
      <point x="840" y="369"/>
      <point x="868" y="329"/>
      <point x="868" y="304" type="qcurve"/>
      <point x="868" y="275"/>
      <point x="827" y="233"/>
      <point x="796" y="222" type="qcurve"/>
      <point x="834" y="207"/>
      <point x="884" y="157"/>
    </contour>
    <contour>
      <point x="817" y="126" type="qcurve"/>
      <point x="817" y="141"/>
      <point x="799" y="166"/>
      <point x="769" y="182"/>
      <point x="732" y="191"/>
      <point x="713" y="191" type="qcurve"/>
      <point x="693" y="191"/>
      <point x="655" y="182"/>
      <point x="626" y="164"/>
      <point x="609" y="140"/>
      <point x="609" y="125" type="qcurve"/>
      <point x="609" y="110"/>
      <point x="628" y="86"/>
      <point x="658" y="70"/>
      <point x="695" y="61"/>
      <point x="714" y="61" type="qcurve"/>
      <point x="733" y="61"/>
      <point x="770" y="70"/>
      <point x="799" y="87"/>
      <point x="817" y="111"/>
    </contour>
    <contour>
      <point x="624" y="297" type="qcurve"/>
      <point x="624" y="285"/>
      <point x="640" y="266"/>
      <point x="665" y="253"/>
      <point x="697" y="246"/>
      <point x="713" y="246" type="qcurve"/>
      <point x="728" y="246"/>
      <point x="760" y="253"/>
      <point x="786" y="267"/>
      <point x="802" y="286"/>
      <point x="802" y="298" type="qcurve"/>
      <point x="802" y="310"/>
      <point x="787" y="328"/>
      <point x="762" y="342"/>
      <point x="730" y="349"/>
      <point x="713" y="349" type="qcurve"/>
      <point x="678" y="349"/>
      <point x="624" y="321"/>
    </contour>
  </outline>
</glyph>
<glyph name="lozenge" format="1">
  <advance width="542"/>
  <unicode hex="25CA"/>
  <outline>
    <contour>
      <point x="331" y="730" type="line"/>
      <point x="517" y="366" type="line"/>
      <point x="331" y="0" type="line"/>
      <point x="211" y="0" type="line"/>
      <point x="25" y="366" type="line"/>
      <point x="211" y="730" type="line"/>
    </contour>
    <contour>
      <point x="418" y="354" type="line"/>
      <point x="270" y="649" type="line"/>
      <point x="131" y="375" type="line"/>
      <point x="279" y="78" type="line"/>
    </contour>
  </outline>
</glyph>
<glyph name="f_f_l" format="1">
  <advance width="883"/>
  <unicode hex="FB04"/>
  <outline>
    <contour>
      <point x="771" y="-7" type="qcurve"/>
      <point x="714" y="-7"/>
      <point x="649" y="55"/>
      <point x="649" y="98" type="qcurve"/>
      <point x="649" y="538" type="line"/>
      <point x="649" y="557"/>
      <point x="640" y="596"/>
      <point x="619" y="627"/>
      <point x="583" y="646"/>
      <point x="555" y="646" type="qcurve"/>
      <point x="529" y="646"/>
      <point x="492" y="626"/>
      <point x="469" y="591"/>
      <point x="459" y="545"/>
      <point x="459" y="519" type="qcurve"/>
      <point x="459" y="510" type="line"/>
      <point x="554" y="510" type="line"/>
      <point x="554" y="425" type="line"/>
      <point x="459" y="425" type="line"/>
      <point x="459" y="0" type="line"/>
      <point x="349" y="0" type="line"/>
      <point x="349" y="425" type="line"/>
      <point x="206" y="425" type="line"/>
      <point x="206" y="0" type="line"/>
      <point x="96" y="0" type="line"/>
      <point x="96" y="425" type="line"/>
      <point x="26" y="425" type="line"/>
      <point x="26" y="510" type="line"/>
      <point x="96" y="510" type="line"/>
      <point x="96" y="518" type="line"/>
      <point x="96" y="555"/>
      <point x="120" y="623"/>
      <point x="165" y="673"/>
      <point x="230" y="703"/>
      <point x="270" y="703" type="qcurve"/>
      <point x="306" y="703"/>
      <point x="364" y="687"/>
      <point x="390" y="675" type="qcurve"/>
      <point x="443" y="740"/>
      <point x="554" y="740" type="qcurve"/>
      <point x="606" y="740"/>
      <point x="683" y="714"/>
      <point x="734" y="666"/>
      <point x="759" y="599"/>
      <point x="759" y="559" type="qcurve"/>
      <point x="759" y="151" type="line"/>
      <point x="759" y="141"/>
      <point x="765" y="120"/>
      <point x="777" y="102"/>
      <point x="796" y="91"/>
      <point x="810" y="91" type="qcurve"/>
      <point x="819" y="91"/>
      <point x="839" y="95"/>
      <point x="856" y="100"/>
      <point x="868" y="104"/>
      <point x="869" y="104" type="qcurve"/>
      <point x="885" y="15" type="line"/>
      <point x="884" y="14"/>
      <point x="864" y="7"/>
      <point x="831" y="-1"/>
      <point x="791" y="-7"/>
    </contour>
    <contour>
      <point x="349" y="510" type="line"/>
      <point x="349" y="518"/>
      <point x="350" y="542"/>
      <point x="352" y="567"/>
      <point x="355" y="588"/>
      <point x="358" y="594" type="qcurve"/>
      <point x="343" y="603"/>
      <point x="308" y="609"/>
      <point x="293" y="609" type="qcurve"/>
      <point x="271" y="609"/>
      <point x="239" y="594"/>
      <point x="217" y="569"/>
      <point x="206" y="538"/>
      <point x="206" y="522" type="qcurve"/>
      <point x="206" y="510" type="line"/>
    </contour>
  </outline>
</glyph>
<glyph name="A.sc" format="1">
  <advance width="591"/>
  <outline>
    <contour>
      <point x="317" y="707" type="move" name="top"/>
    </contour>
    <contour>
      <point x="621" y="8" type="move" name="bottom"/>
    </contour>
    <contour>
      <point x="8" y="0" type="line"/>
      <point x="255" y="555" type="line"/>
      <point x="336" y="555" type="line"/>
      <point x="581" y="0" type="line"/>
      <point x="476" y="0" type="line"/>
      <point x="412" y="144" type="line"/>
      <point x="178" y="144" type="line"/>
      <point x="115" y="0" type="line"/>
    </contour>
    <contour>
      <point x="295" y="433" type="line"/>
      <point x="200" y="230" type="line"/>
      <point x="388" y="230" type="line"/>
    </contour>
  </outline>
</glyph>
<glyph name="F.sc" format="1">
  <advance width="510"/>
  <outline>
    <contour>
      <point x="74" y="0" type="line"/>
      <point x="74" y="555" type="line"/>
      <point x="482" y="555" type="line"/>
      <point x="482" y="467" type="line"/>
      <point x="173" y="467" type="line"/>
      <point x="173" y="315" type="line"/>
      <point x="432" y="315" type="line"/>
      <point x="432" y="233" type="line"/>
      <point x="173" y="233" type="line"/>
      <point x="173" y="0" type="line"/>
    </contour>
  </outline>
</glyph>
<glyph name="U.sc" format="1">
  <advance width="653"/>
  <outline>
    <contour>
      <point x="379" y="707" type="move" name="top"/>
    </contour>
    <contour>
      <point x="379" y="0" type="move" name="bottom"/>
    </contour>
    <contour>
      <point x="326" y="85" type="qcurve"/>
      <point x="373" y="85"/>
      <point x="435" y="117"/>
      <point x="473" y="170"/>
      <point x="488" y="237"/>
      <point x="488" y="273" type="qcurve"/>
      <point x="488" y="555" type="line"/>
      <point x="588" y="555" type="line"/>
      <point x="588" y="273" type="line"/>
      <point x="588" y="216"/>
      <point x="559" y="115"/>
      <point x="496" y="40"/>
      <point x="397" y="-4"/>
      <point x="327" y="-4" type="qcurve"/>
      <point x="255" y="-4"/>
      <point x="155" y="42"/>
      <point x="94" y="119"/>
      <point x="66" y="219"/>
      <point x="66" y="273" type="qcurve"/>
      <point x="66" y="555" type="line"/>
      <point x="165" y="555" type="line"/>
      <point x="165" y="273" type="line"/>
      <point x="165" y="237"/>
      <point x="181" y="169"/>
      <point x="219" y="116"/>
      <point x="281" y="85"/>
    </contour>
  </outline>
</glyph>
<glyph name="W.alt" format="1">
  <advance width="1093"/>
  <outline>
    <contour>
      <point x="1078" y="710" type="line"/>
      <point x="855" y="0" type="line"/>
      <point x="737" y="0" type="line"/>
      <point x="544" y="526" type="line"/>
      <point x="355" y="0" type="line"/>
      <point x="238" y="0" type="line"/>
      <point x="14" y="710" type="line"/>
      <point x="141" y="710" type="line"/>
      <point x="307" y="168" type="line"/>
      <point x="482" y="710" type="line"/>
      <point x="605" y="710" type="line"/>
      <point x="785" y="168" type="line"/>
      <point x="951" y="710" type="line"/>
    </contour>
  </outline>
</glyph>
<glyph name="d.alt" format="1">
  <advance width="629"/>
  <outline>
    <contour>
      <point x="453" y="0" type="line"/>
      <point x="453" y="87" type="line"/>
      <point x="426" y="42"/>
      <point x="338" y="-10"/>
      <point x="282" y="-10" type="qcurve"/>
      <point x="228" y="-10"/>
      <point x="136" y="33"/>
      <point x="70" y="107"/>
      <point x="33" y="205"/>
      <point x="33" y="261" type="qcurve"/>
      <point x="33" y="317"/>
      <point x="68" y="416"/>
      <point x="131" y="489"/>
      <point x="217" y="532"/>
      <point x="268" y="532" type="qcurve"/>
      <point x="330" y="532"/>
      <point x="424" y="471"/>
      <point x="453" y="424" type="qcurve"/>
      <point x="453" y="730" type="line"/>
      <point x="563" y="730" type="line"/>
      <point x="563" y="0" type="line"/>
    </contour>
    <contour>
      <point x="453" y="325" type="line"/>
      <point x="444" y="349"/>
      <point x="412" y="391"/>
      <point x="371" y="421"/>
      <point x="324" y="438"/>
      <point x="301" y="438" type="qcurve"/>
      <point x="266" y="438"/>
      <point x="210" y="408"/>
      <point x="169" y="358"/>
      <point x="147" y="293"/>
      <point x="147" y="259" type="qcurve"/>
      <point x="147" y="223"/>
      <point x="172" y="159"/>
      <point x="215" y="112"/>
      <point x="275" y="84"/>
      <point x="310" y="84" type="qcurve"/>
      <point x="332" y="84"/>
      <point x="378" y="100"/>
      <point x="418" y="128"/>
      <point x="448" y="166"/>
      <point x="453" y="188" type="qcurve"/>
    </contour>
  </outline>
</glyph>
<glyph name="eight.denominator" format="1">
  <advance width="412"/>
  <outline>
    <contour>
      <point x="377" y="119" type="qcurve"/>
      <point x="377" y="92"/>
      <point x="349" y="46"/>
      <point x="302" y="13"/>
      <point x="240" y="-5"/>
      <point x="205" y="-5" type="qcurve"/>
      <point x="169" y="-5"/>
      <point x="106" y="15"/>
      <point x="60" y="49"/>
      <point x="34" y="95"/>
      <point x="34" y="121" type="qcurve"/>
      <point x="34" y="160"/>
      <point x="87" y="208"/>
      <point x="122" y="222" type="qcurve"/>
      <point x="93" y="233"/>
      <point x="50" y="272"/>
      <point x="50" y="303" type="qcurve"/>
      <point x="50" y="328"/>
      <point x="78" y="369"/>
      <point x="122" y="397"/>
      <point x="178" y="413"/>
      <point x="206" y="413" type="qcurve"/>
      <point x="234" y="413"/>
      <point x="289" y="398"/>
      <point x="333" y="369"/>
      <point x="361" y="329"/>
      <point x="361" y="304" type="qcurve"/>
      <point x="361" y="275"/>
      <point x="320" y="233"/>
      <point x="289" y="222" type="qcurve"/>
      <point x="327" y="207"/>
      <point x="377" y="157"/>
    </contour>
    <contour>
      <point x="310" y="126" type="qcurve"/>
      <point x="310" y="141"/>
      <point x="292" y="166"/>
      <point x="262" y="182"/>
      <point x="225" y="191"/>
      <point x="206" y="191" type="qcurve"/>
      <point x="186" y="191"/>
      <point x="148" y="182"/>
      <point x="119" y="164"/>
      <point x="102" y="140"/>
      <point x="102" y="125" type="qcurve"/>
      <point x="102" y="110"/>
      <point x="121" y="86"/>
      <point x="151" y="70"/>
      <point x="188" y="61"/>
      <point x="207" y="61" type="qcurve"/>
      <point x="226" y="61"/>
      <point x="263" y="70"/>
      <point x="292" y="87"/>
      <point x="310" y="111"/>
    </contour>
    <contour>
      <point x="117" y="297" type="qcurve"/>
      <point x="117" y="285"/>
      <point x="133" y="266"/>
      <point x="158" y="253"/>
      <point x="190" y="246"/>
      <point x="206" y="246" type="qcurve"/>
      <point x="221" y="246"/>
      <point x="253" y="253"/>
      <point x="279" y="267"/>
      <point x="295" y="286"/>
      <point x="295" y="298" type="qcurve"/>
      <point x="295" y="310"/>
      <point x="280" y="328"/>
      <point x="255" y="342"/>
      <point x="223" y="349"/>
      <point x="206" y="349" type="qcurve"/>
      <point x="171" y="349"/>
      <point x="117" y="321"/>
    </contour>
  </outline>
</glyph>
<glyph name="nine.lnum" format="1">
  <advance width="606"/>
  <outline>
    <contour>
      <point x="42" y="469" type="qcurve"/>
      <point x="42" y="521"/>
      <point x="82" y="611"/>
      <point x="151" y="677"/>
      <point x="245" y="715"/>
      <point x="299" y="715" type="qcurve"/>
      <point x="358" y="715"/>
      <point x="454" y="672"/>
      <point x="521" y="591"/>
      <point x="558" y="475"/>
      <point x="558" y="401" type="qcurve"/>
      <point x="558" y="299"/>
      <point x="520" y="146"/>
      <point x="449" y="42"/>
      <point x="349" y="-10"/>
      <point x="288" y="-10" type="qcurve"/>
      <point x="219" y="-10"/>
      <point x="106" y="53"/>
      <point x="71" y="110" type="qcurve"/>
      <point x="136" y="178" type="line"/>
      <point x="159" y="136"/>
      <point x="241" y="87"/>
      <point x="289" y="87" type="qcurve"/>
      <point x="364" y="87"/>
      <point x="454" y="213"/>
      <point x="455" y="328" type="qcurve"/>
      <point x="434" y="283"/>
      <point x="345" y="231"/>
      <point x="288" y="231" type="qcurve"/>
      <point x="236" y="231"/>
      <point x="146" y="268"/>
      <point x="80" y="332"/>
      <point x="42" y="419"/>
    </contour>
    <contour>
      <point x="298" y="622" type="qcurve"/>
      <point x="267" y="622"/>
      <point x="213" y="598"/>
      <point x="172" y="556"/>
      <point x="148" y="501"/>
      <point x="148" y="470" type="qcurve"/>
      <point x="148" y="439"/>
      <point x="172" y="385"/>
      <point x="213" y="344"/>
      <point x="268" y="320"/>
      <point x="299" y="320" type="qcurve"/>
      <point x="330" y="320"/>
      <point x="385" y="344"/>
      <point x="426" y="384"/>
      <point x="450" y="439"/>
      <point x="450" y="469" type="qcurve"/>
      <point x="450" y="500"/>
      <point x="426" y="556"/>
      <point x="384" y="598"/>
      <point x="329" y="622"/>
    </contour>
  </outline>
</glyph>
<glyph name="six.denominator" format="1">
  <advance width="417"/>
  <outline>
    <contour>
      <point x="387" y="138" type="qcurve"/>
      <point x="387" y="108"/>
      <point x="360" y="56"/>
      <point x="313" y="17"/>
      <point x="249" y="-5"/>
      <point x="212" y="-5" type="qcurve"/>
      <point x="133" y="-5"/>
      <point x="37" y="93"/>
      <point x="37" y="182" type="qcurve"/>
      <point x="37" y="297"/>
      <point x="136" y="417"/>
      <point x="221" y="417" type="qcurve"/>
      <point x="267" y="417"/>
      <point x="343" y="382"/>
      <point x="366" y="350" type="qcurve"/>
      <point x="326" y="304" type="line"/>
      <point x="312" y="327"/>
      <point x="253" y="353"/>
      <point x="219" y="353" type="qcurve"/>
      <point x="165" y="353"/>
      <point x="100" y="287"/>
      <point x="99" y="226" type="qcurve"/>
      <point x="115" y="249"/>
      <point x="181" y="276"/>
      <point x="216" y="276" type="qcurve"/>
      <point x="253" y="276"/>
      <point x="316" y="255"/>
      <point x="361" y="217"/>
      <point x="387" y="167"/>
    </contour>
    <contour>
      <point x="214" y="56" type="qcurve"/>
      <point x="236" y="56"/>
      <point x="276" y="69"/>
      <point x="306" y="91"/>
      <point x="323" y="120"/>
      <point x="323" y="137" type="qcurve"/>
      <point x="323" y="171"/>
      <point x="259" y="218"/>
      <point x="213" y="218" type="qcurve"/>
      <point x="190" y="218"/>
      <point x="150" y="205"/>
      <point x="120" y="184"/>
      <point x="103" y="154"/>
      <point x="103" y="138" type="qcurve"/>
      <point x="103" y="121"/>
      <point x="121" y="91"/>
      <point x="151" y="69"/>
      <point x="191" y="56"/>
    </contour>
  </outline>
</glyph>
<glyph name="six.numerator" format="1">
  <advance width="416"/>
  <outline>
    <contour>
      <point x="386" y="451" type="qcurve"/>
      <point x="386" y="421"/>
      <point x="359" y="368"/>
      <point x="312" y="329"/>
      <point x="248" y="307"/>
      <point x="211" y="307" type="qcurve"/>
      <point x="132" y="307"/>
      <point x="36" y="406"/>
      <point x="36" y="495" type="qcurve"/>
      <point x="36" y="610"/>
      <point x="136" y="730"/>
      <point x="221" y="730" type="qcurve"/>
      <point x="266" y="730"/>
      <point x="342" y="695"/>
      <point x="365" y="663" type="qcurve"/>
      <point x="326" y="618" type="line"/>
      <point x="311" y="640"/>
      <point x="253" y="667"/>
      <point x="218" y="667" type="qcurve"/>
      <point x="164" y="667"/>
      <point x="100" y="600"/>
      <point x="98" y="540" type="qcurve"/>
      <point x="114" y="563"/>
      <point x="180" y="589"/>
      <point x="215" y="589" type="qcurve"/>
      <point x="252" y="589"/>
      <point x="315" y="568"/>
      <point x="360" y="531"/>
      <point x="386" y="480"/>
    </contour>
    <contour>
      <point x="213" y="369" type="qcurve"/>
      <point x="235" y="369"/>
      <point x="275" y="382"/>
      <point x="305" y="405"/>
      <point x="322" y="434"/>
      <point x="322" y="450" type="qcurve"/>
      <point x="322" y="484"/>
      <point x="258" y="531"/>
      <point x="212" y="531" type="qcurve"/>
      <point x="189" y="531"/>
      <point x="149" y="518"/>
      <point x="119" y="497"/>
      <point x="102" y="467"/>
      <point x="102" y="451" type="qcurve"/>
      <point x="102" y="434"/>
      <point x="120" y="405"/>
      <point x="150" y="382"/>
      <point x="190" y="369"/>
    </contour>
  </outline>
</glyph>
<glyph name="zero.lnum" format="1">
  <advance width="695"/>
  <outline>
    <contour>
      <point x="348" y="-10" type="qcurve"/>
      <point x="273" y="-9"/>
      <point x="159" y="59"/>
      <point x="83" y="163"/>
      <point x="44" y="290"/>
      <point x="44" y="350" type="qcurve"/>
      <point x="44" y="414"/>
      <point x="86" y="543"/>
      <point x="165" y="646"/>
      <point x="277" y="710"/>
      <point x="348" y="710" type="qcurve"/>
      <point x="423" y="710"/>
      <point x="536" y="641"/>
      <point x="613" y="535"/>
      <point x="651" y="408"/>
      <point x="651" y="350" type="qcurve"/>
      <point x="651" y="285"/>
      <point x="609" y="157"/>
      <point x="530" y="55"/>
      <point x="418" y="-9"/>
    </contour>
    <contour>
      <point x="158" y="350" type="qcurve"/>
      <point x="159" y="305"/>
      <point x="184" y="212"/>
      <point x="231" y="138"/>
      <point x="301" y="91"/>
      <point x="348" y="91" type="qcurve"/>
      <point x="397" y="91"/>
      <point x="468" y="141"/>
      <point x="514" y="217"/>
      <point x="537" y="309"/>
      <point x="537" y="350" type="qcurve"/>
      <point x="537" y="395"/>
      <point x="512" y="488"/>
      <point x="464" y="562"/>
      <point x="394" y="609"/>
      <point x="348" y="609" type="qcurve"/>
      <point x="299" y="609"/>
      <point x="227" y="559"/>
      <point x="181" y="482"/>
      <point x="158" y="391"/>
    </contour>
  </outline>
</glyph>
